{"glyphs":{"0":{"ha":847,"x_min":72,"x_max":775,"o":"m 628 475 q 617 633 628 551 q 583 784 607 715 q 518 894 558 853 q 424 935 478 935 q 328 894 368 935 q 265 784 289 853 q 230 633 240 715 q 219 475 219 551 q 230 317 219 396 q 264 176 240 239 q 328 74 288 113 q 424 35 368 35 q 518 72 478 35 q 583 174 558 110 q 617 317 607 239 q 628 475 628 394 m 72 469 q 97 683 72 588 q 167 847 121 778 q 278 953 213 915 q 424 990 343 990 q 567 954 503 990 q 678 850 632 918 q 750 685 725 782 q 775 469 775 588 q 749 253 775 346 q 676 99 724 160 q 563 8 628 38 q 424 -21 499 -21 q 284 8 349 -21 q 172 98 219 38 q 99 250 125 158 q 72 469 72 342 z "},"1":{"ha":500,"x_min":38,"x_max":472,"o":"m 332 958 l 332 69 l 468 42 q 461 -7 472 15 q 264 0 336 0 q 67 -7 196 0 q 69 42 63 19 q 193 69 165 56 l 193 849 l 42 863 q 49 911 38 890 q 276 974 178 936 q 332 958 303 972 z "},"2":{"ha":719,"x_min":54,"x_max":668,"o":"m 181 104 l 574 104 l 604 247 q 654 243 633 253 q 668 0 668 142 l 54 0 l 54 76 q 149 183 78 104 q 270 320 221 263 q 372 453 319 378 q 456 603 425 529 q 486 743 486 678 q 308 917 486 917 q 175 889 246 917 l 157 707 q 99 703 129 696 q 68 931 65 838 q 329 990 204 990 q 415 987 378 990 q 495 969 453 983 q 568 929 538 956 q 619 856 599 903 q 639 739 639 810 q 578 566 639 665 q 444 386 517 467 q 281 214 372 306 q 176 108 189 122 l 181 104 z "},"3":{"ha":711,"x_min":64,"x_max":638,"o":"m 638 250 q 542 52 638 128 q 313 -24 447 -24 q 64 29 182 -24 q 99 257 68 167 q 114 258 104 258 q 149 250 126 258 l 172 71 q 297 49 236 49 q 435 101 381 49 q 490 247 490 154 q 235 476 489 471 l 235 532 q 405 596 340 536 q 469 743 469 656 q 424 878 468 835 q 308 921 379 921 q 197 896 254 921 l 171 722 q 136 714 154 714 q 121 715 126 714 q 89 936 89 840 q 340 990 211 989 q 526 933 454 992 q 597 754 597 874 q 535 601 597 667 q 386 517 472 536 l 386 511 q 575 430 513 493 q 638 250 638 367 z "},"4":{"ha":778,"x_min":40,"x_max":757,"o":"m 475 831 l 392 703 l 161 378 l 471 378 l 471 686 l 478 831 l 475 831 m 471 69 l 471 283 l 51 283 q 42 332 40 314 l 506 1000 q 603 1025 553 1022 l 603 378 l 749 378 q 735 283 757 326 l 603 283 l 603 69 l 717 42 q 710 -7 721 15 q 540 0 585 0 q 357 -7 486 0 q 360 42 353 19 q 471 69 422 50 z "},"5":{"ha":697,"x_min":64,"x_max":649,"o":"m 649 308 q 539 71 647 167 q 288 -25 431 -25 q 64 42 163 -25 q 97 271 69 156 q 146 263 128 269 l 172 81 q 299 50 235 50 q 447 111 388 50 q 507 282 506 172 q 250 507 507 507 q 106 493 193 507 l 106 972 l 589 972 q 592 940 592 956 q 569 847 592 888 l 190 847 l 185 578 q 336 596 261 596 q 562 518 475 596 q 649 308 649 440 z "},"6":{"ha":758,"x_min":58,"x_max":728,"o":"m 614 925 q 206 569 263 874 q 436 643 315 640 q 646 551 564 642 q 728 301 728 461 q 633 67 725 154 q 411 -21 540 -21 q 149 96 240 -21 q 58 410 58 213 q 205 819 61 674 q 606 1000 349 964 q 614 967 611 990 q 614 925 617 943 m 194 449 q 255 141 196 243 q 410 39 314 39 q 539 114 489 39 q 589 303 589 189 q 536 497 589 429 q 397 564 483 564 q 196 501 290 561 q 194 449 194 483 z "},"7":{"ha":660,"x_min":36,"x_max":653,"o":"m 532 868 l 138 868 l 113 722 q 58 722 83 714 q 36 972 39 868 l 646 972 q 646 917 653 951 l 263 0 l 138 0 l 536 864 l 532 868 z "},"8":{"ha":760,"x_min":53,"x_max":706,"o":"m 706 261 q 604 58 706 136 q 367 -21 503 -21 q 142 52 232 -21 q 53 247 53 125 q 103 399 53 340 q 257 501 154 458 q 100 742 100 599 q 178 917 100 844 q 386 989 257 989 q 581 924 508 989 q 653 760 653 858 q 489 521 654 625 q 648 406 590 468 q 706 261 706 344 m 181 254 q 239 93 181 150 q 385 36 297 36 q 526 85 471 36 q 582 221 582 133 q 559 299 582 263 q 494 367 536 336 q 415 417 453 397 q 318 467 378 438 q 181 254 183 382 m 531 750 q 483 887 531 842 q 368 932 435 932 q 258 891 299 932 q 218 778 218 850 q 280 646 219 696 q 428 557 340 596 q 531 750 531 639 z "},"9":{"ha":758,"x_min":31,"x_max":700,"o":"m 144 54 q 553 410 496 104 q 322 336 446 339 q 116 424 200 336 q 31 678 32 513 q 123 910 32 821 q 347 1000 214 999 q 608 883 515 1000 q 700 569 700 767 q 554 162 699 308 q 153 -21 410 15 q 144 15 147 -10 q 144 54 142 39 m 564 531 q 504 838 563 735 q 349 940 446 940 q 219 865 268 939 q 169 676 169 790 q 222 481 169 550 q 361 413 275 413 q 563 476 460 413 q 564 531 564 494 z "}," ":{"ha":329,"x_min":0,"x_max":0,"o":""},"!":{"ha":353,"x_min":85,"x_max":260,"o":"m 146 236 l 103 972 q 133 989 110 982 q 175 996 157 996 q 221 989 196 996 q 251 972 246 982 l 210 236 q 146 236 175 226 m 85 69 q 115 122 85 96 q 178 147 146 147 q 236 117 213 147 q 260 57 260 88 q 230 4 260 29 q 165 -21 200 -21 q 109 9 133 -21 q 85 69 85 39 z "},"\"":{"ha":500,"x_min":64,"x_max":421,"o":"m 203 982 l 160 608 q 104 608 129 597 l 64 982 q 93 998 71 990 q 133 1006 115 1006 q 175 999 153 1006 q 203 982 197 992 m 421 982 l 378 608 q 322 608 347 597 l 282 982 q 311 998 289 990 q 351 1006 333 1006 q 393 999 371 1006 q 421 982 415 992 z "},"#":{"ha":733,"x_min":-8,"x_max":719,"o":"m 13 0 l 114 299 l -7 299 q -3 335 -8 315 q 8 363 1 354 l 135 363 l 207 582 l 58 582 q 62 618 57 599 q 74 646 67 638 l 228 646 q 283 825 251 721 q 329 979 314 929 q 414 979 390 993 l 300 646 l 513 646 q 567 825 536 721 q 614 979 599 929 q 699 979 675 993 l 585 646 l 719 646 q 704 582 719 606 l 564 582 l 492 363 l 654 363 q 639 299 654 322 l 472 299 q 382 0 446 215 q 297 0 319 -12 l 399 299 l 188 299 q 97 0 161 215 q 13 0 35 -12 m 279 582 l 207 363 l 419 363 l 492 582 l 279 582 z "},"$":{"ha":753,"x_min":76,"x_max":693,"o":"m 331 -117 l 338 -1 q 76 44 167 1 q 111 276 76 163 q 119 277 114 276 q 128 278 125 278 q 169 269 150 278 l 190 93 q 335 72 274 72 q 440 86 389 72 q 522 133 490 100 q 553 218 553 165 q 545 284 554 257 q 511 337 536 311 q 435 392 486 363 q 294 461 383 422 q 180 524 224 492 q 115 590 136 556 q 87 660 93 625 q 81 738 81 696 q 156 899 81 838 q 354 974 232 960 l 346 1096 q 400 1104 372 1104 q 450 1096 425 1104 l 438 978 q 649 938 551 975 q 608 713 653 836 q 590 711 603 711 q 549 719 567 711 l 535 896 q 415 914 474 914 q 265 874 324 914 q 207 760 207 833 q 246 657 206 696 q 397 568 286 618 q 632 431 571 494 q 693 256 693 368 q 617 86 693 153 q 422 3 542 19 l 433 -117 q 385 -125 408 -125 q 331 -117 358 -125 z "},"%":{"ha":1017,"x_min":57,"x_max":958,"o":"m 268 1000 q 413 930 361 999 q 464 765 464 861 q 410 590 464 663 q 263 517 356 518 q 111 588 165 518 q 57 756 57 658 q 113 928 57 857 q 268 1000 169 999 m 376 774 q 344 897 374 847 q 263 949 315 947 q 176 894 207 947 q 146 763 146 842 q 177 626 146 682 q 263 569 208 569 q 347 627 315 569 q 376 774 378 685 m 757 981 l 354 0 q 261 -10 307 -18 l 664 972 q 757 981 713 989 m 763 456 q 907 385 856 454 q 958 221 958 317 q 904 46 958 118 q 757 -28 850 -26 q 606 44 660 -26 q 551 211 551 114 q 608 383 551 313 q 763 456 664 454 m 871 229 q 839 353 868 303 q 757 404 810 403 q 671 350 701 403 q 640 218 640 297 q 672 81 640 138 q 757 25 703 25 q 841 83 810 25 q 871 229 872 140 z "},"&":{"ha":1015,"x_min":69,"x_max":1011,"o":"m 775 0 l 674 108 q 371 -21 544 -22 q 147 60 224 -17 q 69 249 69 136 q 140 419 69 336 q 310 528 210 501 q 207 769 206 663 q 267 912 207 853 q 436 972 328 971 q 591 919 532 972 q 650 789 650 865 q 596 628 650 703 q 468 522 542 553 q 701 258 536 440 q 793 482 774 399 l 686 510 q 693 558 682 536 q 836 551 790 551 q 983 558 886 551 q 976 510 986 533 q 869 482 890 494 q 749 207 842 375 l 856 93 q 1007 42 899 49 q 1000 -7 1011 15 q 775 0 875 -1 m 625 160 q 343 485 436 367 q 236 401 272 458 q 200 269 200 343 q 268 124 201 178 q 429 71 335 71 q 625 160 549 72 m 317 799 q 336 702 315 746 q 432 567 357 658 q 518 657 492 599 q 544 775 544 715 q 426 908 544 908 q 349 879 381 908 q 317 799 317 850 z "},"'":{"ha":265,"x_min":64,"x_max":203,"o":"m 203 982 l 160 608 q 104 608 129 597 l 64 982 q 93 998 71 990 q 133 1006 115 1006 q 175 999 153 1006 q 203 982 197 992 z "},"(":{"ha":394,"x_min":50,"x_max":381,"o":"m 50 396 q 124 795 50 599 q 340 1097 199 992 q 381 1067 368 1096 q 237 800 300 982 q 172 396 174 618 q 237 -7 174 175 q 381 -275 300 -189 q 340 -306 367 -299 q 175 -110 242 -233 q 79 143 108 14 q 50 396 50 272 z "},")":{"ha":394,"x_min":14,"x_max":344,"o":"m 344 396 q 315 143 344 272 q 219 -110 286 14 q 54 -306 153 -233 q 14 -275 28 -299 q 158 -7 94 -189 q 222 396 221 175 q 158 800 221 618 q 14 1067 94 982 q 54 1097 26 1096 q 270 795 196 992 q 344 396 344 599 z "},"*":{"ha":600,"x_min":72,"x_max":535,"o":"m 279 693 l 121 579 q 86 608 104 578 q 76 654 72 640 l 257 732 l 78 813 q 86 858 75 833 q 121 888 107 886 l 281 769 l 260 965 q 304 981 274 979 q 347 965 338 979 l 324 768 l 483 885 q 519 854 497 882 q 528 808 535 824 l 346 731 l 526 650 q 517 604 531 636 q 482 575 499 576 l 322 692 l 343 497 q 300 482 333 485 q 257 497 267 483 l 279 693 l 279 693 z "},"+":{"ha":674,"x_min":56,"x_max":614,"o":"m 379 708 l 379 485 l 614 485 q 599 396 611 419 l 379 396 l 379 157 q 330 160 364 154 q 288 172 296 165 l 288 396 l 57 396 q 60 445 56 414 q 72 485 65 476 l 288 485 l 288 724 q 379 708 351 721 z "},",":{"ha":326,"x_min":65,"x_max":268,"o":"m 65 69 q 92 126 65 104 q 158 147 118 147 q 239 101 210 147 q 268 -1 268 56 q 235 -137 268 -75 q 147 -229 201 -199 q 111 -190 124 -221 q 170 -126 146 -168 q 194 -46 194 -85 q 146 -21 194 -21 q 89 5 113 -21 q 65 69 65 31 z "},"-":{"ha":731,"x_min":85,"x_max":643,"o":"m 628 396 l 86 396 q 90 446 85 415 q 101 485 94 476 l 643 485 q 628 396 640 419 z "},".":{"ha":306,"x_min":65,"x_max":240,"o":"m 65 69 q 96 122 65 96 q 158 147 126 147 q 217 117 193 147 q 240 57 240 88 q 210 4 240 29 q 146 -21 181 -21 q 90 9 114 -21 q 65 69 65 39 z "},"/":{"ha":647,"x_min":43,"x_max":607,"o":"m 43 -139 l 514 972 q 607 982 575 986 l 138 -128 q 43 -139 90 -144 z "},":":{"ha":347,"x_min":88,"x_max":263,"o":"m 88 531 q 118 583 88 557 q 181 608 149 608 q 239 578 215 608 q 263 518 263 549 q 233 465 263 490 q 168 440 203 440 q 112 470 136 440 q 88 531 88 500 m 88 69 q 118 122 88 96 q 181 147 149 147 q 239 117 215 147 q 263 57 263 88 q 233 4 263 29 q 168 -21 203 -21 q 112 9 136 -21 q 88 69 88 39 z "},";":{"ha":378,"x_min":92,"x_max":294,"o":"m 92 69 q 118 126 92 104 q 185 147 144 147 q 265 101 236 147 q 294 -1 294 56 q 261 -137 294 -75 q 174 -229 228 -199 q 138 -190 150 -221 q 197 -126 172 -168 q 221 -46 221 -85 q 172 -21 221 -21 q 115 5 139 -21 q 92 69 92 31 m 93 531 q 124 583 93 557 q 186 608 154 608 q 244 578 221 608 q 268 518 268 549 q 238 465 268 490 q 174 440 208 440 q 117 470 142 440 q 93 531 93 500 z "},"<":{"ha":751,"x_min":53,"x_max":671,"o":"m 671 776 l 671 690 l 174 414 l 671 138 l 671 51 l 53 379 l 53 449 l 671 776 z "},"=":{"ha":753,"x_min":96,"x_max":654,"o":"m 639 488 l 97 488 q 101 536 96 504 q 113 576 106 568 l 654 576 q 639 488 651 511 m 639 274 l 97 274 q 101 322 96 290 q 113 363 106 354 l 654 363 q 639 274 651 297 z "},">":{"ha":751,"x_min":81,"x_max":699,"o":"m 699 449 l 699 379 l 81 51 l 81 138 l 578 414 l 81 690 l 81 776 l 699 449 z "},"?":{"ha":600,"x_min":69,"x_max":543,"o":"m 174 69 q 204 122 174 96 q 267 147 235 147 q 325 117 301 147 q 349 57 349 88 q 319 4 349 29 q 254 -21 289 -21 q 198 9 222 -21 q 174 69 174 39 m 269 232 q 229 240 246 232 q 181 382 181 321 q 204 474 181 429 q 261 556 228 518 q 329 632 294 593 q 386 713 364 671 q 408 800 408 756 q 375 897 408 863 q 285 931 342 931 q 169 897 214 931 q 139 735 160 799 q 92 733 118 725 q 72 844 74 808 q 74 921 69 881 q 310 979 185 979 q 476 931 408 979 q 543 801 543 882 q 516 693 543 740 q 449 610 489 646 q 365 537 408 575 q 294 452 321 499 q 267 346 267 406 q 288 242 267 311 q 269 232 285 232 z "},"@":{"ha":1153,"x_min":71,"x_max":1085,"o":"m 851 -126 l 876 -178 q 579 -260 751 -260 q 214 -119 356 -258 q 71 242 72 21 q 233 649 74 482 q 621 818 393 815 q 958 687 831 817 q 1085 354 1085 557 q 999 58 1083 172 q 813 -56 914 -56 q 718 -16 758 -56 q 665 100 678 24 l 660 100 q 474 -25 572 -25 q 360 33 406 -25 q 315 182 315 92 q 333 320 315 250 q 387 452 351 390 q 481 553 422 514 q 611 592 539 592 q 731 528 686 592 l 735 528 l 753 585 l 806 585 l 806 546 l 754 229 q 747 149 747 192 q 767 57 747 88 q 819 26 788 26 q 932 117 878 26 q 988 365 986 207 q 890 645 988 544 q 614 747 792 746 q 309 606 428 746 q 188 258 190 467 q 297 -64 188 56 q 604 -183 406 -183 q 851 -126 751 -183 m 624 525 q 531 468 575 525 q 460 333 486 411 q 435 186 435 254 q 508 72 438 72 q 557 88 532 72 q 608 140 582 103 q 654 251 633 178 q 685 425 675 324 q 624 525 694 525 z "},"A":{"ha":950,"x_min":-8,"x_max":976,"o":"m 606 333 l 283 333 l 193 69 l 300 42 q 293 -7 304 15 q 124 0 168 0 q 78 -1 100 0 q 35 -4 56 -3 q -4 -7 14 -6 q -1 42 -8 19 q 106 69 61 50 l 435 999 q 489 1010 456 1010 l 865 69 l 972 42 q 965 -7 976 15 q 796 0 840 0 q 594 -7 724 0 q 597 42 590 19 q 708 69 663 50 l 606 333 m 438 806 l 435 806 q 374 600 392 651 l 308 410 l 575 410 l 499 607 q 438 806 454 710 z "},"B":{"ha":883,"x_min":46,"x_max":825,"o":"m 453 -7 l 240 0 q 50 -7 179 0 q 53 42 46 19 q 164 69 111 50 l 164 903 l 57 931 q 64 979 53 957 q 233 972 189 972 l 419 974 q 765 750 763 976 q 703 598 765 660 q 550 521 642 536 l 550 518 q 825 264 825 488 q 794 134 825 189 q 710 49 764 79 q 592 6 656 19 q 453 -7 529 -7 m 310 63 l 436 56 q 618 110 564 56 q 669 265 672 165 q 610 427 669 379 q 408 475 551 475 l 310 475 l 310 63 m 310 544 l 390 544 q 565 594 513 544 q 617 744 617 643 q 562 870 617 832 q 379 908 507 908 q 310 906 360 908 l 310 544 z "},"C":{"ha":897,"x_min":61,"x_max":865,"o":"m 822 151 q 854 106 851 143 q 538 -28 718 -28 q 358 3 443 -28 q 206 96 272 35 q 101 258 140 157 q 61 486 61 358 q 105 713 61 613 q 222 876 149 814 q 378 969 294 939 q 551 1000 463 1000 q 860 938 746 1000 q 817 710 865 839 q 756 717 782 704 l 740 896 q 561 926 665 928 q 319 799 417 926 q 222 486 222 672 q 308 165 222 285 q 553 46 393 46 q 822 151 697 46 z "},"D":{"ha":1026,"x_min":46,"x_max":963,"o":"m 414 -10 l 240 0 q 50 -7 179 0 q 53 42 46 19 q 164 69 115 50 l 164 903 l 57 931 q 64 979 53 957 q 233 972 189 972 l 414 978 q 825 851 688 978 q 963 500 963 725 q 917 262 963 363 q 794 102 872 161 q 620 17 715 43 q 414 -10 525 -10 m 310 63 q 401 58 357 58 q 715 163 622 58 q 808 500 808 268 q 709 811 808 710 q 381 913 610 913 q 310 910 360 913 l 310 63 z "},"E":{"ha":868,"x_min":51,"x_max":810,"o":"m 568 458 l 310 458 l 310 63 l 713 63 l 742 247 q 790 243 769 253 q 807 0 810 161 l 240 0 q 56 -7 185 0 q 58 42 51 19 q 164 69 131 56 l 164 903 l 57 931 q 64 979 53 957 q 233 972 189 972 l 768 972 q 753 729 771 831 q 703 725 732 721 l 667 910 l 310 910 l 310 535 l 568 535 l 594 657 q 650 650 626 667 q 644 501 644 596 q 650 338 644 397 q 594 335 625 328 l 568 458 z "},"F":{"ha":779,"x_min":53,"x_max":756,"o":"m 310 472 l 310 68 l 442 42 q 435 -7 446 15 q 233 0 310 0 q 67 -7 196 0 q 69 42 63 19 q 164 69 140 54 l 164 903 l 57 931 q 64 979 53 957 q 233 972 189 972 l 754 972 q 755 894 756 954 q 739 729 754 835 q 689 725 718 721 l 654 910 l 310 910 l 310 549 l 528 549 l 554 671 q 610 664 586 681 q 604 515 604 610 q 610 351 604 411 q 554 349 585 342 l 528 472 l 310 472 z "},"G":{"ha":994,"x_min":61,"x_max":969,"o":"m 861 347 l 861 68 q 525 -28 696 -28 q 192 108 324 -28 q 61 486 61 244 q 208 861 61 722 q 589 1000 354 1000 q 875 940 751 1000 q 832 697 875 836 q 814 696 826 696 q 771 704 789 696 l 756 893 q 579 928 664 928 q 323 805 422 928 q 222 486 224 682 q 309 165 222 285 q 551 46 396 46 q 715 81 632 44 l 715 347 l 608 375 q 607 390 607 381 q 615 424 607 407 q 790 417 740 417 q 961 424 836 417 q 969 390 969 407 q 969 383 969 388 q 968 375 968 379 q 861 347 901 368 z "},"H":{"ha":1082,"x_min":46,"x_max":1040,"o":"m 921 903 l 921 69 l 1028 42 q 1021 -7 1032 15 q 851 0 896 0 q 661 -7 790 0 q 664 42 657 19 q 775 69 726 50 l 775 472 l 310 472 l 310 69 l 417 42 q 410 -7 421 15 q 240 0 285 0 q 50 -7 179 0 q 53 42 46 19 q 164 69 128 54 l 164 903 l 57 931 q 64 979 53 957 q 233 972 189 972 q 424 979 296 972 q 421 931 429 953 q 310 903 349 918 l 310 549 l 775 549 l 775 903 l 668 931 q 675 979 664 957 q 844 972 800 972 q 1035 979 907 972 q 1032 931 1040 953 q 921 903 960 918 z "},"I":{"ha":471,"x_min":46,"x_max":428,"o":"m 310 903 l 310 69 l 417 42 q 410 -7 421 15 q 240 0 285 0 q 50 -7 179 0 q 53 42 46 22 q 164 69 129 51 l 164 903 l 57 931 q 64 979 53 957 q 233 972 189 972 q 424 979 296 972 q 421 931 428 951 q 310 903 349 918 z "},"J":{"ha":450,"x_min":-12,"x_max":418,"o":"m 154 193 l 154 903 l 47 931 q 54 979 43 957 q 224 972 179 972 q 414 979 286 972 q 411 931 418 953 q 300 903 339 921 l 300 193 q 230 -10 300 72 q 15 -147 160 -92 q -3 -134 6 -146 q -12 -112 -12 -122 q 154 193 154 -26 z "},"K":{"ha":925,"x_min":46,"x_max":946,"o":"m 754 872 l 474 540 l 808 86 q 865 57 821 69 q 942 42 908 44 q 935 -7 946 15 q 765 0 810 0 q 554 -7 682 0 q 557 42 550 21 q 668 69 629 49 l 401 431 l 310 431 l 310 69 l 417 42 q 410 -7 421 15 q 240 0 285 0 q 50 -7 179 0 q 53 42 46 22 q 164 69 113 50 l 164 903 l 57 931 q 64 979 53 957 q 233 972 189 972 q 424 979 296 972 q 421 931 428 953 q 310 903 356 924 l 310 507 l 363 507 l 685 903 q 578 931 653 922 q 585 979 574 957 q 757 972 710 972 q 901 979 804 972 q 899 931 906 953 q 754 872 797 918 z "},"L":{"ha":761,"x_min":51,"x_max":744,"o":"m 310 76 l 643 76 l 681 247 q 731 243 710 253 q 744 0 744 142 l 240 0 q 56 -7 185 0 q 58 42 51 19 q 164 69 139 57 l 164 903 l 57 931 q 64 979 53 957 q 233 972 189 972 q 424 979 296 972 q 421 931 428 953 q 310 903 347 924 l 310 76 z "},"M":{"ha":1275,"x_min":26,"x_max":1254,"o":"m 688 368 l 914 944 l 914 972 l 997 972 q 1188 979 1060 972 q 1185 931 1192 953 q 1074 903 1108 918 l 1143 69 l 1250 42 q 1243 -7 1254 15 q 1074 0 1118 0 q 883 -7 1013 0 q 886 42 879 21 q 997 69 978 54 l 939 678 q 936 756 936 704 q 938 819 936 799 l 933 819 q 889 678 911 736 l 638 43 q 588 29 610 28 l 314 678 q 268 819 296 721 l 264 819 l 260 676 l 225 68 l 332 40 q 325 -8 336 14 q 279 -5 308 -7 q 226 -1 250 -3 q 179 0 201 0 q 31 -7 132 0 q 33 42 26 19 q 142 69 94 50 l 197 903 l 90 931 q 97 979 86 957 q 267 972 222 972 l 357 972 l 357 944 l 583 368 q 633 204 608 310 l 636 204 q 688 368 661 300 z "},"N":{"ha":1051,"x_min":47,"x_max":1017,"o":"m 821 903 l 714 931 q 721 979 710 957 q 860 972 811 972 q 1013 979 913 972 q 1010 931 1017 953 q 899 903 938 918 l 899 -28 q 871 -42 883 -37 l 318 660 q 236 792 290 693 l 232 792 q 239 656 239 749 l 239 69 l 346 40 q 339 -8 350 14 q 293 -5 322 -7 q 240 -1 264 -3 q 193 0 215 0 q 51 -7 179 0 q 54 42 47 19 q 163 69 107 50 l 163 903 l 56 931 q 63 979 51 957 q 232 972 188 972 l 288 972 l 322 900 l 751 349 q 826 213 785 306 l 831 213 q 826 263 828 246 q 824 300 825 279 q 822 346 822 321 l 821 903 z "},"O":{"ha":1046,"x_min":61,"x_max":985,"o":"m 61 488 q 190 859 61 718 q 521 1000 319 1000 q 856 858 726 1000 q 985 488 985 715 q 857 114 985 256 q 521 -28 729 -28 q 186 114 311 -28 q 61 488 61 256 m 825 497 q 791 708 825 610 q 685 871 757 806 q 517 936 613 936 q 381 898 439 936 q 288 794 322 860 q 238 648 254 728 q 221 475 221 568 q 306 162 221 288 q 536 36 392 36 q 751 167 678 36 q 825 497 825 299 z "},"P":{"ha":819,"x_min":46,"x_max":789,"o":"m 385 388 q 310 392 358 388 l 310 69 l 444 42 q 438 -7 449 15 q 240 0 313 0 q 50 -7 179 0 q 53 42 46 19 q 164 69 129 51 l 164 903 l 57 931 q 64 979 53 957 q 233 972 189 972 q 340 978 279 972 q 421 985 401 985 q 691 908 593 985 q 789 697 789 832 q 754 554 789 615 q 660 457 719 493 q 532 404 601 421 q 385 388 463 388 m 411 922 q 310 910 363 922 l 310 460 q 396 451 354 451 q 574 512 508 451 q 640 689 640 572 q 575 858 640 794 q 411 922 510 922 z "},"Q":{"ha":1046,"x_min":61,"x_max":1135,"o":"m 61 488 q 191 861 63 722 q 521 1000 319 1000 q 856 856 728 1000 q 985 488 985 713 q 878 139 985 276 q 590 -22 771 1 q 1001 -178 782 -178 q 1117 -154 1067 -178 q 1127 -167 1119 -156 q 1133 -185 1135 -179 q 921 -289 1013 -289 q 479 -26 747 -289 q 173 129 283 -10 q 61 488 63 268 m 825 497 q 790 708 825 606 q 683 873 754 810 q 517 936 613 936 q 381 897 439 936 q 288 794 322 858 q 238 649 254 729 q 221 475 221 568 q 306 162 221 288 q 536 36 392 36 q 750 165 675 36 q 825 497 825 293 z "},"R":{"ha":906,"x_min":46,"x_max":903,"o":"m 310 438 l 310 69 l 417 42 q 410 -7 421 15 q 240 0 285 0 q 50 -7 179 0 q 53 42 46 19 q 164 69 114 49 l 164 903 l 57 931 q 64 979 53 957 q 261 972 181 971 l 392 981 q 674 919 567 990 q 781 711 781 847 q 590 467 781 531 l 590 461 q 621 417 606 451 q 760 119 736 157 q 836 47 794 57 q 875 43 853 43 l 892 44 q 900 0 903 28 q 808 -21 883 -19 q 657 51 717 -21 q 611 127 633 79 q 552 264 589 175 q 472 439 515 353 q 379 435 426 435 q 310 438 354 435 m 644 703 q 578 860 644 804 q 411 917 513 917 q 310 901 367 917 l 310 501 q 393 492 350 492 q 578 548 513 492 q 644 703 644 604 z "},"S":{"ha":757,"x_min":68,"x_max":711,"o":"m 358 -26 q 68 22 171 -26 q 104 264 68 146 q 113 265 107 264 q 122 265 118 265 q 165 257 147 265 l 188 72 q 338 51 275 51 q 438 63 386 51 q 527 108 489 74 q 565 203 565 143 q 549 290 565 257 q 476 363 533 324 q 296 456 418 403 q 120 574 171 511 q 72 744 69 638 q 175 931 74 867 q 429 994 276 994 q 665 953 558 994 q 622 718 669 847 q 604 717 617 717 q 561 725 581 717 l 546 910 q 421 928 483 928 q 267 888 329 928 q 204 768 206 849 q 241 664 203 704 q 403 568 279 624 q 543 501 493 528 q 634 437 593 474 q 693 353 675 400 q 711 242 711 306 q 604 43 708 113 q 358 -26 500 -26 z "},"T":{"ha":865,"x_min":26,"x_max":847,"o":"m 357 69 l 357 910 l 140 910 l 100 711 q 44 715 67 706 q 31 972 26 875 l 843 972 q 828 715 847 861 q 772 711 806 706 l 732 910 l 503 910 l 503 69 l 618 42 q 611 -7 622 15 q 433 0 486 0 q 243 -7 371 0 q 246 42 239 21 q 357 69 300 49 z "},"U":{"ha":1035,"x_min":31,"x_max":1010,"o":"m 892 903 l 892 382 q 870 182 892 258 q 807 60 849 106 q 699 -7 765 14 q 532 -28 632 -28 q 361 -10 432 -28 q 241 51 290 7 q 167 172 192 94 q 142 368 142 249 l 142 903 l 35 931 q 42 979 31 957 q 211 972 167 972 q 401 979 274 972 q 399 931 406 953 q 288 903 326 921 l 288 326 q 567 42 286 40 q 659 54 619 42 q 727 91 699 67 q 770 143 756 115 q 794 199 785 171 q 808 273 803 228 q 815 347 814 318 q 815 424 815 376 l 815 903 l 708 931 q 715 979 704 957 q 857 972 813 972 q 1006 979 904 972 q 1003 931 1010 951 q 892 903 924 919 z "},"V":{"ha":935,"x_min":-24,"x_max":963,"o":"m 842 903 l 508 -28 q 458 -42 485 -42 l 88 903 l -19 931 q -12 979 -24 957 q 178 972 113 972 q 368 979 240 972 q 365 931 372 953 q 254 903 303 922 l 456 364 q 514 163 500 243 l 517 163 q 581 371 546 261 l 765 903 l 658 931 q 665 979 654 957 q 808 972 763 972 q 958 979 857 972 q 956 931 963 953 q 842 903 876 919 z "},"W":{"ha":1378,"x_min":-31,"x_max":1386,"o":"m 506 353 l 640 783 l 597 903 l 490 931 q 497 979 486 957 q 688 972 622 972 q 878 979 749 972 q 875 931 882 953 q 848 926 867 929 q 818 922 829 924 q 791 915 807 919 q 763 903 775 910 l 935 364 q 994 147 983 213 l 997 147 q 1049 364 1013 233 l 1190 903 l 1069 931 q 1076 979 1065 957 q 1233 972 1188 972 q 1382 979 1282 972 q 1379 931 1386 953 q 1265 903 1301 917 l 1008 -28 q 938 -42 985 -39 l 679 676 l 453 -28 q 388 -42 432 -39 l 81 903 l -26 931 q -19 979 -31 957 q 171 972 106 972 q 361 979 232 972 q 358 931 365 951 q 242 903 293 924 l 388 357 q 443 132 435 186 l 446 132 q 506 353 460 221 z "},"X":{"ha":932,"x_min":-11,"x_max":944,"o":"m 800 903 l 532 529 l 814 81 q 943 42 844 53 q 944 35 943 39 q 944 28 944 31 q 936 -7 944 10 q 828 -2 874 -4 q 751 0 782 0 q 657 -2 710 0 q 540 -7 604 -4 q 539 2 539 -3 q 539 11 539 7 q 543 42 539 26 q 608 56 581 49 q 656 69 636 63 l 435 415 l 192 69 l 299 42 q 299 35 299 39 q 300 28 300 31 q 292 -7 300 10 q 196 -2 236 -4 q 132 0 156 0 q 69 -2 104 0 q -10 -7 33 -4 q -11 2 -11 -3 q -11 11 -11 7 q -7 42 -11 26 q 59 53 32 47 q 104 69 86 60 l 397 476 l 126 903 l 19 931 q 18 944 18 935 q 26 979 18 963 q 137 974 89 976 q 217 972 185 972 q 297 974 249 972 q 411 979 346 976 q 413 961 413 972 q 408 931 413 944 q 339 917 367 924 q 296 903 311 910 l 493 586 l 721 903 l 614 931 q 613 944 613 935 q 621 979 613 963 q 706 974 669 976 q 768 972 743 972 q 828 974 792 972 q 917 979 865 976 q 918 961 918 972 q 914 931 918 944 q 855 921 883 928 q 800 903 826 914 z "},"Y":{"ha":910,"x_min":-21,"x_max":926,"o":"m 535 446 l 535 69 l 656 42 q 649 -7 660 15 q 465 0 524 0 q 275 -7 404 0 q 278 42 269 19 q 389 69 356 51 l 389 418 l 90 903 l -17 931 q -10 979 -21 957 q 172 972 115 972 q 367 979 238 972 q 364 931 371 953 q 251 903 285 921 l 481 508 l 486 508 l 717 903 l 610 931 q 617 979 606 957 q 774 972 714 972 q 922 979 821 972 q 919 931 926 953 q 801 903 833 919 l 535 446 z "},"Z":{"ha":826,"x_min":43,"x_max":768,"o":"m 768 0 l 49 0 q 49 63 43 38 l 600 910 l 182 910 l 142 711 q 86 715 108 706 q 72 972 72 888 l 761 972 q 761 917 767 942 l 215 63 l 658 63 l 699 261 q 754 257 732 267 q 768 40 768 185 l 768 0 z "},"[":{"ha":403,"x_min":115,"x_max":388,"o":"m 115 1026 l 375 1026 q 375 965 388 999 l 231 965 l 231 -129 l 375 -129 q 375 -189 385 -162 l 115 -189 l 115 1026 z "},"\\":{"ha":640,"x_min":42,"x_max":606,"o":"m 606 -139 q 511 -128 558 -144 l 42 982 q 135 972 74 986 l 606 -139 l 606 -139 z "},"]":{"ha":413,"x_min":24,"x_max":296,"o":"m 296 -189 l 36 -189 q 36 -129 26 -162 l 181 -129 l 181 965 l 36 965 q 36 1026 24 999 l 296 1026 l 296 -189 z "},"^":{"ha":668,"x_min":15,"x_max":660,"o":"m 15 722 l 333 1039 l 342 1039 l 660 722 q 622 689 649 708 q 583 669 594 669 l 339 911 l 336 911 l 92 669 q 53 689 81 669 q 15 722 25 708 z "},"_":{"ha":908,"x_min":83,"x_max":819,"o":"m 804 -172 l 85 -172 q 88 -123 83 -154 q 100 -83 93 -92 l 819 -83 q 804 -172 817 -149 z "},"`":{"ha":260,"x_min":6,"x_max":228,"o":"m 117 1051 l 228 810 q 178 786 210 792 q 6 996 115 844 q 117 1051 43 1039 z "},"a":{"ha":689,"x_min":42,"x_max":678,"o":"m 181 167 q 210 82 181 111 q 292 53 240 53 q 374 76 331 53 q 440 132 418 100 l 440 319 q 239 285 297 319 q 181 167 181 251 m 576 440 l 576 68 q 674 40 597 57 q 667 -8 678 14 q 550 -18 615 -18 q 471 -10 504 -18 l 451 63 l 446 63 q 239 -24 363 -24 q 96 23 150 -24 q 42 153 42 69 q 440 375 43 382 l 442 497 q 319 660 443 658 q 189 639 246 660 l 171 492 q 110 486 143 482 q 82 667 81 592 q 357 722 197 722 q 526 661 476 724 q 576 440 576 599 z "},"b":{"ha":794,"x_min":-18,"x_max":740,"o":"m 233 1035 l 233 632 l 240 625 q 449 708 335 708 q 663 609 585 707 q 740 346 740 511 q 638 70 740 168 q 365 -28 535 -28 q 101 25 225 -25 l 101 953 l -14 964 q -7 1013 -18 992 q 178 1050 86 1026 q 233 1035 204 1049 m 240 544 l 240 60 q 379 28 301 28 q 535 112 478 28 q 592 346 592 196 q 540 554 592 482 q 407 626 489 626 q 310 600 360 626 q 240 544 261 574 z "},"c":{"ha":672,"x_min":51,"x_max":631,"o":"m 542 492 l 524 639 q 419 658 481 658 q 324 636 365 658 q 256 573 283 614 q 214 475 228 532 q 200 347 200 418 q 258 126 200 201 q 411 51 315 51 q 603 117 501 51 q 628 81 621 107 q 388 -24 525 -24 q 260 2 321 -24 q 153 76 199 28 q 80 193 107 125 q 51 347 53 261 q 80 504 51 435 q 157 622 108 574 q 272 694 206 669 q 415 719 339 719 q 631 675 529 719 q 603 486 631 574 q 581 485 597 485 q 542 492 558 485 z "},"d":{"ha":814,"x_min":56,"x_max":792,"o":"m 396 53 q 554 126 485 53 l 554 610 q 417 654 501 654 q 257 574 311 654 q 203 347 203 493 q 251 127 203 201 q 396 53 300 53 m 693 1035 l 693 67 q 790 39 717 46 q 791 32 790 36 q 792 25 792 28 q 783 -10 792 7 q 667 -19 735 -19 q 588 -11 621 -19 q 571 22 578 4 q 561 63 564 40 l 554 63 q 448 -7 501 14 q 339 -28 394 -28 q 227 0 279 -28 q 137 77 175 28 q 77 192 99 126 q 56 335 56 258 q 80 497 56 425 q 150 618 104 568 q 260 694 196 668 q 406 721 325 721 q 554 686 485 721 l 558 686 l 558 953 l 443 964 q 442 978 442 968 q 450 1013 442 996 q 638 1050 550 1026 q 693 1035 667 1047 z "},"e":{"ha":688,"x_min":51,"x_max":639,"o":"m 199 375 l 199 347 q 255 131 199 208 q 408 53 311 53 q 508 65 471 53 q 603 115 546 76 q 628 82 625 106 q 404 -24 532 -22 q 149 76 244 -24 q 51 347 53 176 q 152 620 53 522 q 397 718 251 718 q 577 638 515 718 q 639 422 639 558 q 638 386 639 399 l 618 371 l 199 375 m 396 658 q 276 599 331 658 q 204 432 221 540 l 507 449 q 483 609 507 560 q 396 658 458 658 z "},"f":{"ha":489,"x_min":33,"x_max":538,"o":"m 454 861 l 439 983 q 385 994 413 994 q 276 778 276 992 l 276 660 l 471 660 q 457 590 469 614 l 276 590 l 276 69 l 411 42 q 404 -7 415 15 q 207 0 279 0 q 38 -7 165 0 q 40 42 33 19 q 138 69 107 56 l 138 590 l 47 590 q 50 627 46 604 q 61 660 54 650 l 138 660 l 138 743 q 202 966 138 883 q 374 1049 267 1049 q 538 1007 471 1051 q 511 856 528 922 q 454 861 481 851 z "},"g":{"ha":725,"x_min":56,"x_max":722,"o":"m 518 465 q 473 599 518 550 q 356 649 428 649 q 238 599 283 649 q 193 465 193 550 q 239 335 193 386 q 356 285 285 285 q 472 335 426 285 q 518 465 518 386 m 356 232 q 250 247 300 232 q 225 193 225 211 q 235 167 225 178 q 287 144 244 156 q 422 121 329 132 q 638 65 572 106 q 704 -76 704 24 q 650 -212 704 -157 q 517 -290 596 -267 q 356 -314 438 -314 q 131 -262 206 -314 q 56 -131 56 -210 q 186 49 56 -6 q 140 140 140 89 q 197 267 140 213 q 67 463 67 331 q 155 643 68 583 q 356 701 242 703 q 494 676 433 701 l 679 790 q 708 744 694 781 q 718 689 722 708 q 542 653 626 658 q 644 463 644 590 q 597 331 644 385 q 483 254 549 276 q 356 232 418 232 m 376 10 q 339 15 365 11 q 285 22 313 18 q 236 32 258 26 q 184 -30 200 1 q 168 -111 168 -61 q 221 -217 168 -174 q 363 -261 274 -261 q 519 -215 458 -261 q 579 -112 579 -169 q 526 -31 579 -60 q 376 10 472 -3 z "},"h":{"ha":831,"x_min":6,"x_max":814,"o":"m 257 1035 l 257 618 l 264 618 q 492 722 381 722 q 656 665 601 722 q 710 506 710 607 l 710 69 l 810 42 q 803 -7 814 15 q 640 0 678 0 q 471 -7 599 0 q 474 42 467 19 q 571 69 543 56 l 571 485 q 535 595 571 564 q 436 625 500 626 q 344 603 392 625 q 264 544 296 581 l 264 69 l 357 42 q 350 -7 361 15 q 194 0 225 0 q 25 -7 154 0 q 28 42 21 19 q 125 69 106 60 l 125 953 l 10 964 q 17 1013 6 992 q 204 1050 117 1028 q 257 1035 228 1049 z "},"i":{"ha":403,"x_min":26,"x_max":382,"o":"m 93 929 q 125 983 93 956 q 192 1011 157 1011 q 251 980 226 1011 q 276 917 276 949 q 245 862 276 889 q 178 835 214 835 q 119 866 146 835 q 93 929 93 897 m 285 693 l 285 69 l 378 42 q 371 -7 382 15 q 215 0 246 0 q 46 -7 174 0 q 49 42 42 19 q 146 69 126 60 l 146 611 l 31 622 q 38 671 26 650 q 232 708 153 688 q 285 693 256 707 z "},"j":{"ha":363,"x_min":-35,"x_max":263,"o":"m 71 929 q 103 983 71 956 q 169 1011 135 1011 q 229 980 204 1011 q 254 917 254 949 q 223 862 254 889 q 156 835 192 835 q 97 866 124 835 q 71 929 71 897 m 263 47 q 193 -177 263 -83 q -8 -342 124 -271 q -35 -282 -35 -321 q 94 -153 63 -225 q 124 42 125 -81 l 124 611 l 8 622 q 15 671 4 650 q 210 708 131 688 q 263 693 233 707 l 263 47 z "},"k":{"ha":753,"x_min":4,"x_max":751,"o":"m 260 1035 l 260 385 l 296 385 l 518 632 l 417 653 q 415 668 415 658 q 424 701 415 685 q 565 694 521 694 q 696 701 608 694 q 697 681 697 694 q 693 653 697 667 q 589 618 628 646 l 400 415 l 657 69 q 750 42 685 47 q 751 34 750 39 q 751 26 751 29 q 743 -7 751 10 q 578 -1 635 -1 q 451 -7 511 -1 q 450 13 450 0 q 454 42 450 28 l 522 46 l 324 329 l 260 329 l 260 69 l 353 42 q 353 34 353 39 q 354 26 354 29 q 346 -7 354 10 q 190 0 221 0 q 21 -7 150 0 q 19 13 19 0 q 24 42 19 28 q 121 69 101 60 l 121 953 l 6 964 q 4 979 4 969 q 13 1013 4 996 q 207 1050 128 1029 q 260 1035 231 1049 z "},"l":{"ha":388,"x_min":6,"x_max":375,"o":"m 264 1035 l 264 69 l 371 42 q 364 -7 375 15 q 194 0 239 0 q 25 -7 154 0 q 28 42 21 19 q 125 69 106 61 l 125 953 l 10 964 q 17 1013 6 992 q 211 1050 132 1029 q 264 1035 235 1049 z "},"m":{"ha":1238,"x_min":21,"x_max":1231,"o":"m 272 696 l 268 601 l 269 600 q 517 717 381 714 q 699 600 657 715 q 933 717 803 718 q 1076 665 1025 717 q 1128 515 1128 613 l 1129 69 l 1226 42 q 1219 -7 1231 15 q 1060 0 1094 0 q 896 -7 1024 0 q 899 42 892 19 q 990 69 942 50 l 990 453 q 962 581 990 544 q 868 617 933 617 q 711 526 789 615 l 713 69 l 810 42 q 803 -7 814 15 q 643 0 688 0 q 479 -7 600 0 q 482 42 475 19 q 574 69 525 50 l 574 453 q 545 582 574 544 q 451 619 517 619 q 279 536 375 618 l 279 69 l 372 42 q 365 -7 376 15 q 210 0 254 0 q 40 -7 160 0 q 43 42 36 19 q 140 69 110 58 l 140 611 l 25 622 q 32 671 21 650 q 225 708 139 689 q 272 696 249 707 z "},"n":{"ha":838,"x_min":21,"x_max":828,"o":"m 272 696 l 268 601 l 269 600 q 531 717 386 714 q 674 665 622 717 q 725 515 725 613 l 726 69 l 824 42 q 817 -7 828 15 q 657 0 706 0 q 493 -7 607 0 q 496 42 489 19 q 588 69 539 50 l 588 453 q 559 582 588 544 q 465 619 531 619 q 279 536 353 619 l 279 69 l 372 42 q 365 -7 376 15 q 210 0 254 0 q 40 -7 168 0 q 43 42 36 19 q 140 69 110 58 l 140 611 l 25 622 q 32 671 21 650 q 225 708 139 689 q 272 696 249 707 z "},"o":{"ha":800,"x_min":50,"x_max":750,"o":"m 50 347 q 151 622 50 521 q 400 722 253 724 q 656 615 561 722 q 750 347 750 508 q 650 71 750 171 q 400 -28 550 -29 q 142 79 235 -28 q 50 347 50 186 m 600 328 q 553 561 603 460 q 397 663 503 663 q 247 573 294 663 q 200 338 199 483 q 212 218 200 274 q 249 121 224 163 q 312 56 274 79 q 403 32 350 32 q 544 101 489 31 q 600 328 600 172 z "},"p":{"ha":815,"x_min":7,"x_max":761,"o":"m 258 697 l 257 642 l 264 635 q 472 722 363 722 q 682 618 604 721 q 761 365 760 515 q 667 74 761 175 q 406 -26 574 -26 q 264 4 339 -25 l 264 -278 l 385 -306 q 378 -354 389 -332 q 194 -347 253 -347 q 25 -354 140 -347 q 28 -306 21 -328 q 125 -278 94 -292 l 125 611 l 11 622 q 18 671 7 650 q 210 708 78 678 q 258 697 232 707 m 264 561 l 264 82 q 403 38 329 38 q 560 121 506 38 q 614 357 614 204 q 565 568 614 497 q 431 639 517 639 q 333 615 382 639 q 264 561 285 590 z "},"q":{"ha":786,"x_min":56,"x_max":790,"o":"m 693 646 l 693 -278 l 786 -306 q 779 -354 790 -332 q 624 -347 668 -347 q 440 -354 569 -347 q 443 -306 436 -328 q 554 -278 524 -293 l 554 51 q 346 -28 467 -28 q 179 27 244 -26 q 85 164 114 81 q 56 333 56 247 q 153 619 56 517 q 429 722 251 722 q 693 646 567 722 m 554 132 l 554 608 q 415 654 497 656 q 257 571 310 654 q 204 333 204 488 q 212 236 204 281 q 239 149 219 192 q 296 81 258 107 q 388 56 333 56 q 485 79 436 56 q 554 132 533 103 z "},"r":{"ha":599,"x_min":21,"x_max":581,"o":"m 279 468 l 279 69 l 414 42 q 407 -7 418 15 q 210 0 282 0 q 40 -7 154 0 q 43 42 36 19 q 140 69 121 58 l 140 611 l 25 622 q 32 671 21 650 q 226 708 147 688 q 272 693 242 708 l 272 567 l 274 565 q 485 718 376 718 q 576 697 540 719 q 549 489 581 594 q 486 494 514 485 l 467 633 q 279 468 351 633 z "},"s":{"ha":600,"x_min":53,"x_max":553,"o":"m 139 208 l 153 61 q 279 36 199 36 q 383 63 340 36 q 425 142 425 89 q 383 224 425 189 q 240 307 342 260 q 112 399 153 347 q 71 531 71 450 q 139 672 71 625 q 317 719 207 719 q 519 681 424 719 q 520 665 519 675 q 521 650 521 656 q 494 490 521 568 q 474 488 481 488 q 432 496 453 488 l 410 646 q 321 658 367 658 q 226 635 264 658 q 186 558 188 611 q 221 478 186 511 q 351 399 256 444 q 508 296 464 344 q 553 174 553 247 q 480 26 553 79 q 289 -28 407 -28 q 54 28 143 -31 l 54 51 q 79 214 53 139 q 93 215 88 215 q 139 208 118 215 z "},"t":{"ha":449,"x_min":17,"x_max":438,"o":"m 285 -22 q 167 22 207 -22 q 128 165 128 67 l 128 608 l 31 608 q 24 671 17 635 q 133 702 101 669 q 190 840 164 735 l 264 840 l 264 685 l 410 685 q 410 608 429 644 l 264 608 l 264 200 q 278 76 264 107 q 333 47 293 46 q 417 75 368 47 q 438 33 436 63 q 378 -5 419 13 q 285 -22 338 -22 z "},"u":{"ha":819,"x_min":13,"x_max":801,"o":"m 700 67 q 797 39 719 53 q 790 -10 801 14 q 676 -19 739 -19 q 599 -11 632 -19 l 575 92 l 568 92 q 438 3 499 29 q 306 -22 378 -22 q 118 186 118 -22 l 118 611 l 17 622 q 24 671 13 650 q 204 708 108 683 q 257 693 228 707 l 257 207 q 289 101 257 129 q 388 75 321 74 q 479 101 431 75 q 561 164 528 126 l 561 611 l 460 622 q 467 671 456 650 q 647 708 551 683 q 700 693 671 707 l 700 67 z "},"v":{"ha":785,"x_min":-11,"x_max":799,"o":"m 375 -42 l 100 625 l -7 653 q 0 701 -11 679 q 169 694 111 694 q 349 701 221 694 q 346 653 353 675 q 250 625 276 640 l 369 319 q 428 131 411 213 l 432 131 q 478 288 460 239 l 610 625 l 500 653 q 507 701 496 679 q 650 694 604 694 q 794 701 700 694 q 792 653 799 675 q 693 625 718 640 l 438 -24 q 375 -42 408 -39 z "},"w":{"ha":1156,"x_min":-8,"x_max":1165,"o":"m 771 -39 l 596 463 l 424 -19 q 358 -37 393 -35 l 103 625 l -4 653 q 3 701 -8 679 q 172 694 128 694 q 347 701 218 694 q 344 653 351 675 q 249 625 268 636 l 351 335 q 410 138 386 236 l 414 138 q 471 329 444 257 l 560 567 l 540 625 l 433 653 q 440 701 429 679 q 606 694 547 694 q 765 701 665 694 q 763 653 769 675 q 667 625 686 638 l 760 322 q 818 124 807 171 l 822 124 q 876 311 838 193 l 975 625 l 868 653 q 875 701 864 679 q 1014 694 965 694 q 1161 701 1060 694 q 1158 653 1165 675 q 1060 625 1085 640 l 838 -19 q 771 -39 806 -36 z "},"x":{"ha":764,"x_min":7,"x_max":764,"o":"m 657 625 l 447 368 l 654 69 q 684 57 669 61 q 716 49 699 53 q 747 42 733 44 q 740 -7 751 15 q 585 0 629 0 q 415 -7 543 0 q 418 42 411 19 l 501 65 l 364 264 l 208 69 l 301 42 q 294 -7 306 15 q 158 0 197 0 q 17 -7 111 0 q 19 42 13 19 q 119 69 93 51 l 324 324 l 118 625 l 11 653 q 18 701 7 679 q 188 694 143 694 q 367 701 238 694 q 364 653 371 675 q 271 625 303 643 l 407 428 l 565 625 l 456 653 q 463 701 451 679 q 614 694 560 694 q 760 701 660 694 q 757 653 764 675 q 657 625 688 640 z "},"y":{"ha":796,"x_min":6,"x_max":803,"o":"m 156 -374 q 76 -196 86 -271 q 129 -176 103 -178 l 218 -281 q 369 -6 296 -204 l 117 625 l 10 653 q 17 701 6 679 q 181 694 142 694 q 353 701 224 694 q 350 653 357 675 q 254 625 271 636 l 369 346 q 440 131 428 206 l 444 131 q 454 172 446 136 q 472 240 463 207 q 499 315 482 274 l 617 625 l 521 653 q 528 701 517 679 q 664 694 621 694 q 799 701 713 694 q 796 653 803 675 q 700 625 715 636 l 428 -65 q 299 -292 371 -210 q 156 -374 226 -375 z "},"z":{"ha":651,"x_min":36,"x_max":599,"o":"m 190 63 l 488 63 l 526 221 q 589 226 554 231 q 599 85 599 171 q 597 0 599 28 l 50 0 q 36 47 40 17 l 418 632 l 161 632 l 136 488 q 74 482 108 478 q 51 694 56 590 l 572 694 q 592 643 588 672 l 190 63 z "},"{":{"ha":429,"x_min":-6,"x_max":404,"o":"m 146 424 q 265 353 235 406 q 292 181 294 300 l 292 60 q 309 -92 290 -53 q 390 -131 328 -131 q 390 -186 404 -161 q 217 -135 260 -189 q 176 78 174 -82 l 176 199 q 142 349 178 307 q 8 390 107 392 q 8 464 -6 429 q 141 503 104 463 q 176 656 178 544 l 176 779 q 216 989 174 935 q 390 1042 258 1043 q 390 985 404 1014 q 310 949 329 985 q 292 794 290 913 l 292 675 q 265 505 294 560 q 146 432 236 450 l 146 424 z "},"|":{"ha":311,"x_min":111,"x_max":200,"o":"m 111 -319 l 111 1069 q 200 1054 176 1067 l 200 -335 q 149 -331 179 -336 q 111 -319 119 -326 z "},"}":{"ha":429,"x_min":33,"x_max":443,"o":"m 292 432 q 172 505 201 450 q 146 675 143 560 l 146 794 q 128 949 147 913 q 47 985 108 985 q 47 1042 33 1014 q 222 989 179 1043 q 261 779 264 935 l 261 656 q 297 503 260 544 q 429 464 333 463 q 429 390 443 429 q 295 349 331 392 q 261 199 260 307 l 261 78 q 221 -135 264 -82 q 47 -186 178 -189 q 47 -131 33 -161 q 128 -92 110 -131 q 146 60 147 -53 l 146 181 q 173 353 143 300 q 292 424 203 406 l 292 432 z "},"~":{"ha":682,"x_min":49,"x_max":642,"o":"m 485 753 q 392 777 436 753 q 319 830 347 801 q 260 883 292 858 q 200 907 228 907 q 117 815 140 907 q 49 821 83 810 q 96 941 57 896 q 201 986 135 986 q 294 963 251 986 q 364 912 336 940 q 424 860 392 883 q 489 838 456 838 q 542 863 524 838 q 574 950 560 888 q 642 936 617 950 q 485 753 615 753 z "}," ":{"ha":329,"x_min":0,"x_max":0,"o":""},"¡":{"ha":325,"x_min":71,"x_max":246,"o":"m 89 -242 l 132 494 q 196 494 164 506 l 238 -242 q 207 -258 232 -251 q 161 -265 182 -265 q 119 -258 143 -265 q 89 -242 96 -251 m 71 661 q 95 722 71 692 q 151 751 119 751 q 216 726 186 751 q 246 674 246 701 q 222 613 246 643 q 164 583 199 583 q 101 609 132 583 q 71 661 71 635 z "},"¢":{"ha":718,"x_min":67,"x_max":646,"o":"m 361 -53 l 369 100 q 154 214 242 114 q 67 469 67 314 q 151 723 67 626 q 372 838 236 819 l 361 986 q 415 994 389 994 q 465 986 440 994 l 446 842 q 646 797 547 839 q 618 608 646 694 q 596 607 610 607 q 557 614 572 607 l 539 761 q 435 781 496 779 q 272 696 328 781 q 215 469 215 611 q 274 247 215 321 q 426 174 333 174 q 618 239 518 174 q 643 203 636 228 q 446 100 560 117 l 464 -50 q 408 -60 431 -60 q 361 -53 389 -60 z "},"£":{"ha":789,"x_min":63,"x_max":714,"o":"m 103 422 q 105 460 101 443 q 117 492 108 478 l 172 492 l 172 660 q 261 901 174 815 q 483 986 349 986 q 690 935 588 986 q 664 744 686 794 q 647 743 660 743 q 607 750 619 743 l 592 900 q 482 929 557 929 q 362 865 406 929 q 318 694 318 801 l 318 492 l 540 492 q 526 422 539 446 l 318 422 l 318 76 l 610 76 l 647 247 q 668 249 656 249 q 697 243 682 249 q 714 67 714 156 q 711 0 714 44 l 249 0 q 64 -7 192 0 q 63 13 63 0 q 67 42 63 28 q 172 69 131 50 l 172 422 l 103 422 z "},"¤":{"ha":792,"x_min":93,"x_max":699,"o":"m 394 753 q 550 701 481 753 l 625 794 q 699 724 674 769 l 606 643 q 650 497 650 576 q 599 343 650 413 l 697 264 q 626 190 672 215 l 540 288 q 396 243 476 243 q 247 292 314 243 l 167 192 q 93 263 118 217 l 192 349 q 144 497 144 417 q 190 644 144 579 l 94 722 q 165 796 119 771 l 246 703 q 394 753 311 753 m 219 497 q 272 372 219 424 q 396 319 324 319 q 522 372 471 319 q 574 497 574 424 q 522 624 574 572 q 396 676 471 676 q 271 624 322 676 q 219 497 219 572 z "},"¥":{"ha":1026,"x_min":39,"x_max":986,"o":"m 282 467 l 418 467 l 150 903 l 43 931 q 50 979 39 957 q 232 972 175 972 q 426 979 299 972 q 424 931 431 953 q 311 903 344 919 l 540 508 l 546 508 l 776 903 l 669 931 q 676 979 665 957 q 833 972 788 972 q 982 979 882 972 q 979 931 986 953 q 861 903 893 918 l 607 467 l 775 467 q 761 397 774 421 l 594 397 l 594 314 l 775 314 q 761 244 774 268 l 594 244 l 594 69 l 715 42 q 708 -7 719 15 q 525 0 583 0 q 335 -7 463 0 q 338 42 331 19 q 449 69 415 51 l 449 244 l 268 244 q 271 283 265 258 q 282 314 276 307 l 449 314 l 449 397 l 268 397 q 271 435 265 411 q 282 467 276 460 z "},"¦":{"ha":319,"x_min":115,"x_max":204,"o":"m 115 -319 l 115 274 q 204 258 181 271 l 204 -335 q 153 -331 183 -336 q 115 -319 124 -326 m 115 514 l 115 1069 q 204 1054 181 1069 l 204 499 q 115 514 139 501 z "},"§":{"ha":708,"x_min":71,"x_max":633,"o":"m 182 71 l 201 -118 q 315 -140 256 -139 q 447 -96 396 -140 q 499 32 499 -51 q 457 113 499 78 q 351 178 415 149 q 219 245 286 208 q 112 332 153 282 q 71 451 71 382 q 185 657 72 586 q 86 821 86 722 q 167 1010 88 944 q 372 1076 246 1076 q 596 1029 510 1076 q 571 811 601 903 q 508 817 542 806 l 493 1001 q 394 1021 446 1021 q 217 861 217 1021 q 259 779 218 814 q 362 715 300 744 q 488 648 424 685 q 593 561 553 611 q 633 444 633 511 q 517 240 632 310 q 633 64 633 172 q 551 -124 633 -53 q 340 -197 468 -196 q 96 -136 210 -197 q 121 76 101 -14 q 182 71 153 82 m 196 490 q 204 444 196 467 q 228 404 213 421 q 258 374 243 388 q 306 342 272 361 q 352 316 339 322 q 406 290 365 310 q 457 267 447 271 q 511 407 511 303 q 498 462 511 435 q 462 508 485 489 q 413 544 439 528 q 365 570 386 560 q 302 600 344 581 q 242 628 260 619 q 196 490 193 575 z "},"¨":{"ha":481,"x_min":15,"x_max":421,"o":"m 15 906 q 45 957 15 931 q 106 983 75 983 q 163 954 139 983 q 186 896 186 925 q 156 843 186 869 q 96 817 126 817 q 39 847 63 817 q 15 906 15 876 m 250 906 q 280 957 250 931 q 340 983 310 983 q 397 954 374 983 q 421 896 421 925 q 391 843 421 869 q 331 817 361 817 q 274 847 297 817 q 250 906 250 876 z "},"©":{"ha":979,"x_min":74,"x_max":906,"o":"m 490 854 q 789 731 672 854 q 906 425 906 608 q 789 123 904 244 q 490 0 674 1 q 190 124 306 3 q 74 425 75 244 q 191 731 74 608 q 490 854 308 853 m 492 801 q 238 694 339 800 q 136 426 136 588 q 238 161 138 268 q 492 53 338 54 q 743 160 644 54 q 843 426 842 267 q 743 694 843 588 q 492 801 643 801 m 606 518 l 586 636 q 507 650 547 653 q 395 585 432 649 q 358 418 358 521 q 401 253 358 310 q 507 197 444 197 q 656 244 594 194 q 675 217 671 235 q 497 140 601 139 q 317 215 386 140 q 249 418 249 289 q 319 624 249 554 q 501 694 389 694 q 669 658 593 694 q 649 513 674 582 q 606 518 624 510 z "},"ª":{"ha":546,"x_min":63,"x_max":492,"o":"m 157 664 q 179 610 157 629 q 233 590 201 590 q 285 606 257 590 q 326 643 313 622 l 326 751 q 195 733 233 751 q 157 664 157 715 m 426 811 l 426 594 q 488 578 451 582 q 483 532 492 547 q 413 528 458 528 q 353 533 374 528 l 338 586 l 332 586 q 200 528 274 528 q 94 564 126 528 q 63 656 63 600 q 142 774 63 736 q 326 808 221 811 q 310 922 326 896 q 246 949 293 949 q 161 935 207 949 l 149 854 q 104 850 133 846 q 88 967 92 876 q 274 1000 165 1000 q 392 960 363 1000 q 426 811 422 919 z "},"«":{"ha":797,"x_min":50,"x_max":744,"o":"m 394 97 l 58 375 q 58 431 50 406 l 394 708 q 453 671 429 707 l 190 406 l 190 400 l 453 135 q 394 97 429 99 m 686 97 l 350 375 q 350 431 342 406 l 686 708 q 744 671 721 707 l 482 406 l 482 400 l 744 135 q 686 97 721 99 z "},"¬":{"ha":867,"x_min":94,"x_max":761,"o":"m 761 208 q 708 212 740 207 q 669 224 676 217 l 669 406 l 96 406 q 100 455 94 424 q 111 493 106 486 l 761 493 l 761 208 z "},"­":{"ha":494,"x_min":85,"x_max":407,"o":"m 392 396 l 86 396 q 90 447 85 417 q 101 485 94 476 l 407 485 q 392 396 404 419 z "},"®":{"ha":979,"x_min":74,"x_max":906,"o":"m 431 403 l 431 232 l 482 218 q 479 190 485 203 q 397 193 429 193 q 304 190 351 193 q 306 218 301 207 q 361 232 326 221 l 361 618 l 310 632 q 313 663 308 644 q 386 660 343 660 q 469 663 435 660 q 604 633 554 668 q 654 535 654 599 q 560 417 653 447 q 646 247 635 261 q 697 221 663 219 l 708 221 q 707 193 710 211 q 663 183 689 183 q 590 218 619 183 q 569 253 579 231 q 540 321 558 276 q 503 404 522 365 q 431 403 471 400 m 576 529 q 479 625 576 625 q 431 618 461 625 l 431 442 q 471 438 453 438 q 551 458 526 438 q 576 529 576 478 m 490 854 q 789 731 672 854 q 906 425 906 608 q 789 123 904 244 q 490 0 674 1 q 190 124 306 3 q 74 425 75 244 q 191 731 74 608 q 490 854 308 853 m 492 801 q 238 694 339 800 q 136 426 136 588 q 238 161 138 268 q 492 53 338 54 q 743 160 644 54 q 843 426 842 267 q 743 694 843 588 q 492 801 643 801 z "},"¯":{"ha":736,"x_min":-1,"x_max":736,"o":"m 721 786 l 1 786 q 4 834 -1 801 q 17 875 10 867 l 736 875 q 721 786 736 810 z "},"°":{"ha":490,"x_min":54,"x_max":438,"o":"m 249 972 q 382 915 326 972 q 438 781 438 858 q 381 644 438 700 q 244 588 325 588 q 109 643 164 588 q 54 779 54 699 q 110 917 54 861 q 249 972 167 972 m 124 782 q 157 683 124 722 q 244 643 190 643 q 335 683 301 643 q 368 779 368 722 q 335 878 368 839 q 244 917 301 917 q 157 878 190 917 q 124 782 124 839 z "},"±":{"ha":714,"x_min":75,"x_max":633,"o":"m 399 713 l 399 489 l 633 489 q 618 400 631 424 l 399 400 l 399 192 q 349 194 383 189 q 307 207 315 200 l 307 400 l 76 400 q 80 450 75 419 q 92 489 85 481 l 307 489 l 307 728 q 399 713 371 725 m 618 64 l 76 64 q 80 114 75 83 q 92 153 85 144 l 633 153 q 618 64 631 88 z "},"²":{"ha":540,"x_min":63,"x_max":456,"o":"m 158 524 l 382 524 l 404 624 q 424 625 411 625 q 435 624 428 625 q 446 624 442 624 q 456 500 456 565 q 453 436 456 478 l 63 436 l 63 524 q 260 696 196 622 q 325 844 325 769 q 244 958 324 957 q 156 940 190 957 l 138 829 q 113 826 126 826 q 90 829 101 826 q 78 972 75 907 q 258 1010 156 1010 q 390 967 347 1010 q 433 854 433 925 q 424 799 433 825 q 402 751 415 772 q 363 700 389 729 q 294 634 338 671 q 234 585 250 597 q 158 528 218 574 l 158 524 z "},"³":{"ha":535,"x_min":72,"x_max":474,"o":"m 365 583 q 326 669 365 643 q 201 696 288 696 l 201 753 q 306 781 269 753 q 343 858 343 808 q 239 958 342 957 q 163 940 197 958 l 144 829 q 119 826 133 826 q 97 829 108 826 q 85 972 82 908 q 258 1010 157 1010 q 447 876 447 1010 q 413 786 447 819 q 314 736 379 753 l 314 733 q 433 688 392 722 q 474 586 474 654 q 412 464 472 506 q 254 422 351 422 q 76 460 154 421 q 89 603 72 519 q 111 606 100 606 q 136 603 125 606 l 154 494 q 257 476 189 478 q 365 583 364 476 z "},"´":{"ha":282,"x_min":6,"x_max":228,"o":"m 6 810 l 117 1051 q 228 996 190 1039 q 56 786 119 846 q 6 810 24 792 z "},"µ":{"ha":865,"x_min":132,"x_max":829,"o":"m 714 694 l 714 57 q 825 29 757 38 q 818 -19 829 3 q 696 -29 767 -29 q 614 -21 647 -29 l 593 99 l 586 99 q 463 6 521 33 q 333 -22 406 -22 q 222 -1 264 -22 l 222 -229 q 172 -233 197 -233 q 132 -229 153 -233 l 132 694 q 188 701 154 701 q 271 694 201 701 l 271 207 q 304 101 271 129 q 401 75 338 72 q 493 101 444 75 q 575 164 542 126 l 575 694 q 631 701 597 701 q 714 694 644 701 z "},"¶":{"ha":765,"x_min":56,"x_max":701,"o":"m 336 -111 l 336 390 q 129 485 203 400 q 56 685 56 571 q 76 794 56 743 q 135 888 96 846 q 240 953 175 929 q 385 972 304 976 l 507 972 q 697 979 569 972 q 694 931 701 953 q 583 903 618 918 l 583 -111 q 538 -119 561 -119 q 493 -111 517 -119 l 493 903 l 426 903 l 426 -111 q 381 -119 403 -119 q 336 -111 358 -119 z "},"·":{"ha":339,"x_min":82,"x_max":257,"o":"m 169 326 q 82 421 82 326 q 169 515 82 515 q 257 421 257 515 q 169 326 257 326 z "},"¸":{"ha":354,"x_min":32,"x_max":333,"o":"m 171 -65 q 333 -183 333 -65 q 283 -285 333 -244 q 144 -325 232 -325 q 32 -307 82 -324 q 53 -267 33 -282 q 136 -283 96 -283 q 210 -262 181 -283 q 239 -214 239 -240 q 206 -154 239 -175 q 114 -133 172 -133 l 111 10 l 161 3 l 171 -65 z "},"¹":{"ha":451,"x_min":61,"x_max":411,"o":"m 292 990 l 292 506 l 407 478 q 400 429 411 451 q 236 436 289 436 q 68 429 183 436 q 71 478 64 456 l 181 506 l 181 892 l 69 897 q 63 938 61 914 q 250 1000 179 961 l 292 990 z "},"º":{"ha":574,"x_min":56,"x_max":518,"o":"m 294 1004 q 460 935 401 1004 q 518 769 518 865 q 456 594 518 667 q 289 521 393 521 q 117 592 179 521 q 56 760 56 663 q 118 932 56 860 q 294 1004 181 1004 m 289 953 q 188 899 224 953 q 151 767 151 846 q 188 630 151 686 q 289 574 224 574 q 388 631 351 574 q 424 767 424 688 q 388 899 424 846 q 289 953 351 953 z "},"»":{"ha":797,"x_min":56,"x_max":750,"o":"m 406 97 q 347 135 371 99 l 610 400 l 610 406 l 347 671 q 406 708 371 707 l 742 431 q 742 375 750 406 l 406 97 m 114 97 q 56 135 79 99 l 318 400 l 318 406 l 56 671 q 114 708 79 707 l 450 431 q 450 375 458 406 l 114 97 z "},"¼":{"ha":1160,"x_min":61,"x_max":1104,"o":"m 803 981 l 400 0 q 307 -10 353 -17 l 710 972 q 803 981 758 989 m 999 111 l 1100 83 q 1093 35 1104 57 q 943 42 982 42 q 789 35 903 42 q 792 83 785 61 l 888 111 l 888 188 l 657 188 l 649 213 l 907 618 q 999 599 957 618 l 999 256 l 1092 256 q 1079 188 1100 222 l 999 188 l 999 111 m 749 256 l 888 256 l 888 478 l 885 481 l 838 393 l 749 256 m 292 990 l 292 506 l 407 478 q 400 429 411 451 q 236 436 289 436 q 68 429 183 436 q 71 478 64 456 l 181 506 l 181 892 l 69 897 q 63 938 61 914 q 250 1000 179 961 l 292 990 z "},"½":{"ha":1300,"x_min":57,"x_max":1121,"o":"m 799 981 l 396 0 q 303 -10 349 -17 l 706 972 q 799 981 754 989 m 288 990 l 288 506 l 403 478 q 396 429 407 451 q 232 436 285 436 q 64 429 179 436 q 67 478 60 456 l 176 506 l 176 892 l 65 897 q 58 938 57 914 q 246 1000 175 961 l 288 990 m 824 88 l 1047 88 l 1069 188 q 1089 189 1076 189 q 1100 188 1093 189 q 1111 188 1107 188 q 1121 64 1121 129 q 1118 0 1121 42 l 728 0 l 728 88 q 926 260 861 186 q 990 408 990 333 q 910 522 989 521 q 821 504 856 521 l 803 393 q 778 390 792 390 q 756 393 767 390 q 743 536 740 471 q 924 574 821 574 q 1056 531 1013 574 q 1099 418 1099 489 q 1090 363 1099 389 q 1067 315 1081 336 q 1028 264 1054 293 q 959 198 1003 235 q 899 149 915 161 q 824 92 883 138 l 824 88 z "},"¾":{"ha":1206,"x_min":71,"x_max":1150,"o":"m 849 981 l 446 0 q 353 -10 399 -17 l 756 972 q 849 981 804 989 m 1044 111 l 1146 83 q 1139 35 1150 57 q 989 42 1028 42 q 835 35 949 42 q 838 83 831 61 l 933 111 l 933 188 l 703 188 l 694 213 l 953 618 q 1044 599 1003 618 l 1044 256 l 1138 256 q 1125 188 1146 222 l 1044 188 l 1044 111 m 794 256 l 933 256 l 933 478 l 931 481 l 883 393 l 794 256 m 364 583 q 325 669 364 643 q 200 696 286 696 l 200 753 q 305 781 268 753 q 342 858 342 808 q 238 958 340 957 q 161 940 196 958 l 143 829 q 118 826 132 826 q 96 829 107 826 q 83 972 81 908 q 257 1010 156 1010 q 446 876 446 1010 q 412 786 446 819 q 313 736 378 753 l 313 733 q 431 688 390 722 q 472 586 472 654 q 410 464 471 506 q 253 422 350 422 q 75 460 153 421 q 88 603 71 519 q 110 606 99 606 q 135 603 124 606 l 153 494 q 256 476 188 478 q 364 583 363 476 z "},"¿":{"ha":588,"x_min":53,"x_max":526,"o":"m 422 646 q 392 594 422 619 q 329 568 361 568 q 271 598 294 568 q 247 658 247 628 q 277 711 247 686 q 342 736 307 736 q 398 706 374 736 q 422 646 422 676 m 326 483 q 367 475 350 483 q 415 333 415 394 q 392 242 415 286 q 335 160 368 197 q 267 83 301 122 q 210 2 232 44 q 188 -85 188 -40 q 221 -181 188 -147 q 311 -215 254 -215 q 426 -182 382 -215 q 457 -19 436 -83 q 504 -18 478 -10 q 524 -129 522 -93 q 522 -206 526 -165 q 286 -264 411 -265 q 120 -215 188 -264 q 53 -86 53 -167 q 80 22 53 -25 q 147 105 107 69 q 231 178 188 140 q 302 263 275 217 q 329 369 329 310 q 308 474 329 404 q 326 483 311 483 z "},"À":{"ha":950,"x_min":-8,"x_max":976,"o":"m 606 333 l 283 333 l 193 69 l 300 42 q 293 -7 304 15 q 124 0 168 0 q 78 -1 100 0 q 35 -4 56 -3 q -4 -7 14 -6 q -1 42 -8 19 q 106 69 61 50 l 435 999 q 489 1010 456 1010 l 865 69 l 972 42 q 965 -7 976 15 q 796 0 840 0 q 594 -7 724 0 q 597 42 590 19 q 708 69 663 50 l 606 333 m 438 806 l 435 806 q 374 600 392 651 l 308 410 l 575 410 l 499 607 q 438 806 454 710 m 528 1035 l 293 1169 q 368 1275 313 1238 l 560 1075 q 528 1035 547 1053 z "},"Á":{"ha":950,"x_min":-8,"x_max":976,"o":"m 606 333 l 283 333 l 193 69 l 300 42 q 293 -7 304 15 q 124 0 168 0 q 78 -1 100 0 q 35 -4 56 -3 q -4 -7 14 -6 q -1 42 -8 19 q 106 69 61 50 l 435 999 q 489 1010 456 1010 l 865 69 l 972 42 q 965 -7 976 15 q 796 0 840 0 q 594 -7 724 0 q 597 42 590 19 q 708 69 663 50 l 606 333 m 438 806 l 435 806 q 374 600 392 651 l 308 410 l 575 410 l 499 607 q 438 806 454 710 m 625 1169 l 390 1035 q 358 1075 371 1053 l 550 1275 q 625 1169 606 1238 z "},"Â":{"ha":950,"x_min":-8,"x_max":976,"o":"m 606 333 l 283 333 l 193 69 l 300 42 q 293 -7 304 15 q 124 0 168 0 q 78 -1 100 0 q 35 -4 56 -3 q -4 -7 14 -6 q -1 42 -8 19 q 106 69 61 50 l 435 999 q 489 1010 456 1010 l 865 69 l 972 42 q 965 -7 976 15 q 796 0 840 0 q 594 -7 724 0 q 597 42 590 19 q 708 69 663 50 l 606 333 m 438 806 l 435 806 q 374 600 392 651 l 308 410 l 575 410 l 499 607 q 438 806 454 710 m 633 1047 q 467 1183 578 1082 q 300 1047 396 1114 q 256 1081 272 1058 l 429 1272 q 472 1276 453 1276 q 517 1272 489 1276 l 686 1081 q 633 1047 669 1058 z "},"Ã":{"ha":950,"x_min":-8,"x_max":976,"o":"m 606 333 l 283 333 l 193 69 l 300 42 q 293 -7 304 15 q 124 0 168 0 q 78 -1 100 0 q 35 -4 56 -3 q -4 -7 14 -6 q -1 42 -8 19 q 106 69 61 50 l 435 999 q 489 1010 456 1010 l 865 69 l 972 42 q 965 -7 976 15 q 796 0 840 0 q 594 -7 724 0 q 597 42 590 19 q 708 69 663 50 l 606 333 m 438 806 l 435 806 q 374 600 392 651 l 308 410 l 575 410 l 499 607 q 438 806 454 710 m 299 1099 q 258 1135 282 1103 q 390 1240 315 1238 q 475 1219 429 1244 q 543 1190 521 1193 q 635 1226 604 1179 q 675 1203 649 1226 q 567 1092 646 1096 q 466 1115 517 1089 q 390 1142 415 1142 q 299 1099 331 1147 z "},"Ä":{"ha":950,"x_min":-8,"x_max":976,"o":"m 606 333 l 283 333 l 193 69 l 300 42 q 293 -7 304 15 q 124 0 168 0 q 78 -1 100 0 q 35 -4 56 -3 q -4 -7 14 -6 q -1 42 -8 19 q 106 69 61 50 l 435 999 q 489 1010 456 1010 l 865 69 l 972 42 q 965 -7 976 15 q 796 0 840 0 q 594 -7 724 0 q 597 42 590 19 q 708 69 663 50 l 606 333 m 438 806 l 435 806 q 374 600 392 651 l 308 410 l 575 410 l 499 607 q 438 806 454 710 m 249 1168 q 278 1219 249 1193 q 339 1246 308 1246 q 396 1217 372 1246 q 419 1158 419 1188 q 390 1106 419 1132 q 329 1079 360 1079 q 272 1109 296 1079 q 249 1168 249 1139 m 511 1168 q 541 1219 511 1193 q 601 1246 571 1246 q 658 1217 635 1246 q 682 1158 682 1188 q 652 1106 682 1132 q 592 1079 622 1079 q 535 1109 558 1079 q 511 1168 511 1139 z "},"Å":{"ha":950,"x_min":-8,"x_max":976,"o":"m 606 333 l 283 333 l 193 69 l 300 42 q 293 -7 304 15 q 124 0 168 0 q 78 -1 100 0 q 35 -4 56 -3 q -4 -7 14 -6 q -1 42 -8 19 q 106 69 61 50 l 433 996 q 354 1050 390 1006 q 308 1157 308 1106 q 365 1251 308 1204 q 478 1297 421 1297 q 583 1244 539 1297 q 626 1139 626 1190 q 571 1042 626 1089 q 493 999 533 1008 l 865 69 l 972 42 q 965 -7 976 15 q 796 0 840 0 q 594 -7 724 0 q 597 42 590 19 q 708 69 663 50 l 606 333 m 438 806 l 435 806 q 374 600 392 651 l 308 410 l 575 410 l 499 607 q 438 806 454 710 m 465 1072 q 520 1095 493 1072 q 547 1143 547 1118 q 526 1196 547 1169 q 474 1222 504 1222 q 417 1199 444 1222 q 389 1153 389 1176 q 412 1099 389 1126 q 465 1072 435 1072 z "},"Æ":{"ha":1228,"x_min":1,"x_max":1194,"o":"m 579 333 l 319 333 l 203 69 l 310 42 q 303 -7 314 15 q 133 0 178 0 q 67 -3 110 0 q 6 -7 24 -6 q 8 42 1 19 q 115 69 71 50 l 521 972 l 1156 972 q 1140 729 1158 831 q 1090 725 1124 721 l 1054 910 l 725 910 l 725 535 l 956 535 l 982 657 q 1038 650 1014 667 q 1032 501 1032 596 q 1038 338 1032 397 q 982 335 1013 328 l 956 458 l 725 458 l 725 63 l 1096 63 l 1129 247 q 1178 243 1158 251 q 1194 43 1194 163 l 1194 0 l 656 0 q 471 -7 599 0 q 474 42 467 19 q 579 69 546 56 l 579 333 m 574 910 l 353 410 l 579 410 l 579 910 l 574 910 z "},"Ç":{"ha":897,"x_min":61,"x_max":865,"o":"m 517 -50 q 679 -168 679 -50 q 628 -269 679 -229 q 490 -310 578 -310 q 378 -292 428 -308 q 399 -251 379 -267 q 482 -268 442 -268 q 556 -247 526 -268 q 585 -199 585 -225 q 551 -139 585 -160 q 460 -118 518 -118 l 457 -22 q 357 3 406 -15 q 203 98 268 36 q 100 258 139 160 q 61 488 61 357 q 104 712 61 611 q 221 876 147 813 q 378 971 294 940 q 551 1001 463 1001 q 860 938 746 1001 q 817 710 865 839 q 756 717 782 706 l 740 896 q 561 926 665 928 q 318 798 413 924 q 222 488 224 672 q 308 166 222 285 q 553 46 393 47 q 822 151 697 44 q 854 106 851 144 q 538 -28 718 -28 l 513 -26 l 517 -50 z "},"È":{"ha":813,"x_min":51,"x_max":810,"o":"m 568 458 l 310 458 l 310 63 l 713 63 l 742 247 q 790 243 769 253 q 807 0 810 161 l 240 0 q 56 -7 185 0 q 58 42 51 19 q 164 69 131 56 l 164 903 l 57 931 q 64 979 53 957 q 233 972 189 972 l 768 972 q 753 729 771 831 q 703 725 732 721 l 667 910 l 310 910 l 310 535 l 568 535 l 594 657 q 650 650 626 667 q 644 501 644 596 q 650 338 644 397 q 594 335 625 328 l 568 458 m 513 1035 l 278 1169 q 353 1275 297 1238 l 544 1075 q 513 1035 532 1053 z "},"É":{"ha":813,"x_min":51,"x_max":810,"o":"m 568 458 l 310 458 l 310 63 l 713 63 l 742 247 q 790 243 769 253 q 807 0 810 161 l 240 0 q 56 -7 185 0 q 58 42 51 19 q 164 69 131 56 l 164 903 l 57 931 q 64 979 53 957 q 233 972 189 972 l 768 972 q 753 729 771 831 q 703 725 732 721 l 667 910 l 310 910 l 310 535 l 568 535 l 594 657 q 650 650 626 667 q 644 501 644 596 q 650 338 644 397 q 594 335 625 328 l 568 458 m 624 1169 l 389 1035 q 357 1075 369 1053 l 549 1275 q 624 1169 604 1238 z "},"Ê":{"ha":813,"x_min":51,"x_max":810,"o":"m 568 458 l 310 458 l 310 63 l 713 63 l 742 247 q 790 243 769 253 q 807 0 810 161 l 240 0 q 56 -7 185 0 q 58 42 51 19 q 164 69 131 56 l 164 903 l 57 931 q 64 979 53 957 q 233 972 189 972 l 768 972 q 753 729 771 831 q 703 725 732 721 l 667 910 l 310 910 l 310 535 l 568 535 l 594 657 q 650 650 626 667 q 644 501 644 596 q 650 338 644 397 q 594 335 625 328 l 568 458 m 625 1047 q 458 1183 569 1082 q 292 1047 388 1114 q 247 1081 264 1058 l 421 1272 q 464 1276 444 1276 q 508 1272 481 1276 l 678 1081 q 625 1047 661 1058 z "},"Ë":{"ha":813,"x_min":51,"x_max":810,"o":"m 568 458 l 310 458 l 310 63 l 713 63 l 742 247 q 790 243 769 253 q 807 0 810 161 l 240 0 q 56 -7 185 0 q 58 42 51 19 q 164 69 131 56 l 164 903 l 57 931 q 64 979 53 957 q 233 972 189 972 l 768 972 q 753 729 771 831 q 703 725 732 721 l 667 910 l 310 910 l 310 535 l 568 535 l 594 657 q 650 650 626 667 q 644 501 644 596 q 650 338 644 397 q 594 335 625 328 l 568 458 m 233 1168 q 263 1219 233 1193 q 324 1246 293 1246 q 381 1217 357 1246 q 404 1158 404 1188 q 374 1106 404 1132 q 314 1079 344 1079 q 257 1109 281 1079 q 233 1168 233 1139 m 496 1168 q 526 1219 496 1193 q 586 1246 556 1246 q 643 1217 619 1246 q 667 1158 667 1188 q 637 1106 667 1132 q 576 1079 607 1079 q 519 1109 543 1079 q 496 1168 496 1139 z "},"Ì":{"ha":471,"x_min":24,"x_max":428,"o":"m 310 903 l 310 69 l 417 42 q 410 -7 421 15 q 240 0 285 0 q 50 -7 179 0 q 53 42 46 22 q 164 69 129 51 l 164 903 l 57 931 q 64 979 53 957 q 233 972 189 972 q 424 979 296 972 q 421 931 428 951 q 310 903 349 918 m 258 1036 l 24 1171 q 99 1276 43 1239 l 290 1076 q 258 1036 278 1054 z "},"Í":{"ha":471,"x_min":46,"x_max":428,"o":"m 310 903 l 310 69 l 417 42 q 410 -7 421 15 q 240 0 285 0 q 50 -7 179 0 q 53 42 46 22 q 164 69 129 51 l 164 903 l 57 931 q 64 979 53 957 q 233 972 189 972 q 424 979 296 972 q 421 931 428 951 q 310 903 349 918 m 411 1171 l 176 1036 q 144 1076 157 1054 l 336 1276 q 411 1171 392 1239 z "},"Î":{"ha":471,"x_min":35,"x_max":465,"o":"m 310 903 l 310 69 l 417 42 q 410 -7 421 15 q 240 0 285 0 q 50 -7 179 0 q 53 42 46 22 q 164 69 129 51 l 164 903 l 57 931 q 64 979 53 957 q 233 972 189 972 q 424 979 296 972 q 421 931 428 951 q 310 903 349 918 m 413 1049 q 246 1185 357 1083 q 79 1049 175 1115 q 35 1082 51 1060 l 208 1274 q 251 1278 232 1278 q 296 1274 268 1278 l 465 1082 q 413 1049 449 1060 z "},"Ï":{"ha":471,"x_min":21,"x_max":454,"o":"m 310 903 l 310 69 l 417 42 q 410 -7 421 15 q 240 0 285 0 q 50 -7 179 0 q 53 42 46 22 q 164 69 129 51 l 164 903 l 57 931 q 64 979 53 957 q 233 972 189 972 q 424 979 296 972 q 421 931 428 951 q 310 903 349 918 m 21 1169 q 51 1221 21 1194 q 111 1247 81 1247 q 168 1218 144 1247 q 192 1160 192 1189 q 162 1107 192 1133 q 101 1081 132 1081 q 44 1110 68 1081 q 21 1169 21 1140 m 283 1169 q 313 1221 283 1194 q 374 1247 343 1247 q 431 1218 407 1247 q 454 1160 454 1189 q 424 1107 454 1133 q 364 1081 394 1081 q 307 1110 331 1081 q 283 1169 283 1140 z "},"Ð":{"ha":1026,"x_min":46,"x_max":963,"o":"m 414 -10 l 240 0 q 50 -7 179 0 q 53 42 46 19 q 164 69 115 50 l 164 472 l 53 472 q 56 515 51 489 q 68 549 61 540 l 164 549 l 164 903 l 57 931 q 64 979 53 957 q 233 972 189 972 l 414 978 q 823 853 683 979 q 963 500 963 728 q 917 260 963 363 q 792 101 872 158 q 619 17 713 43 q 414 -10 525 -10 m 310 63 q 401 58 357 58 q 715 163 621 58 q 808 500 808 267 q 708 812 808 711 q 381 913 608 913 q 310 910 360 913 l 310 549 l 572 549 q 557 472 571 496 l 310 472 l 310 63 z "},"Ñ":{"ha":1051,"x_min":47,"x_max":1017,"o":"m 821 903 l 714 931 q 721 979 710 957 q 860 972 811 972 q 1013 979 913 972 q 1010 931 1017 953 q 899 903 938 918 l 899 -28 q 871 -42 883 -37 l 318 660 q 236 792 290 693 l 232 792 q 239 656 239 749 l 239 69 l 346 40 q 339 -8 350 14 q 293 -5 322 -7 q 240 -1 264 -3 q 193 0 215 0 q 51 -7 179 0 q 54 42 47 19 q 163 69 107 50 l 163 903 l 56 931 q 63 979 51 957 q 232 972 188 972 l 288 972 l 322 900 l 751 349 q 826 213 785 306 l 831 213 q 826 263 828 246 q 824 300 825 279 q 822 346 822 321 l 821 903 m 367 1099 q 326 1135 350 1103 q 458 1240 383 1238 q 543 1219 497 1244 q 611 1190 589 1193 q 703 1226 672 1179 q 743 1203 717 1226 q 635 1092 714 1096 q 534 1115 585 1089 q 458 1142 483 1142 q 367 1099 399 1147 z "},"Ò":{"ha":1032,"x_min":54,"x_max":978,"o":"m 54 488 q 183 859 54 718 q 514 1000 313 1000 q 849 858 719 1000 q 978 488 978 715 q 850 114 978 256 q 514 -28 722 -28 q 179 114 304 -28 q 54 488 54 256 m 818 497 q 784 708 818 610 q 678 871 750 806 q 510 936 606 936 q 374 898 432 936 q 281 794 315 860 q 231 648 247 728 q 214 475 214 568 q 299 162 214 288 q 529 36 385 36 q 744 167 671 36 q 818 497 818 299 m 549 1035 l 314 1169 q 389 1275 333 1238 l 581 1075 q 549 1035 568 1053 z "},"Ó":{"ha":1032,"x_min":54,"x_max":978,"o":"m 54 488 q 183 859 54 718 q 514 1000 313 1000 q 849 858 719 1000 q 978 488 978 715 q 850 114 978 256 q 514 -28 722 -28 q 179 114 304 -28 q 54 488 54 256 m 818 497 q 784 708 818 610 q 678 871 750 806 q 510 936 606 936 q 374 898 432 936 q 281 794 315 860 q 231 648 247 728 q 214 475 214 568 q 299 162 214 288 q 529 36 385 36 q 744 167 671 36 q 818 497 818 299 m 688 1169 l 453 1035 q 421 1075 433 1053 l 613 1275 q 688 1169 668 1238 z "},"Ô":{"ha":1032,"x_min":54,"x_max":978,"o":"m 54 488 q 183 859 54 718 q 514 1000 313 1000 q 849 858 719 1000 q 978 488 978 715 q 850 114 978 256 q 514 -28 722 -28 q 179 114 304 -28 q 54 488 54 256 m 818 497 q 784 708 818 610 q 678 871 750 806 q 510 936 606 936 q 374 898 432 936 q 281 794 315 860 q 231 648 247 728 q 214 475 214 568 q 299 162 214 288 q 529 36 385 36 q 744 167 671 36 q 818 497 818 299 m 689 1047 q 522 1183 633 1082 q 356 1047 451 1114 q 311 1081 328 1058 l 485 1272 q 528 1276 508 1276 q 572 1272 544 1276 l 742 1081 q 689 1047 725 1058 z "},"Õ":{"ha":1032,"x_min":54,"x_max":978,"o":"m 54 488 q 183 859 54 718 q 514 1000 313 1000 q 849 858 719 1000 q 978 488 978 715 q 850 114 978 256 q 514 -28 722 -28 q 179 114 304 -28 q 54 488 54 256 m 818 497 q 784 708 818 610 q 678 871 750 806 q 510 936 606 936 q 374 898 432 936 q 281 794 315 860 q 231 648 247 728 q 214 475 214 568 q 299 162 214 288 q 529 36 385 36 q 744 167 671 36 q 818 497 818 299 m 361 1099 q 321 1135 344 1103 q 453 1240 378 1238 q 538 1219 492 1244 q 606 1190 583 1193 q 697 1226 667 1179 q 738 1203 711 1226 q 629 1092 708 1096 q 528 1115 579 1089 q 453 1142 478 1142 q 361 1099 393 1147 z "},"Ö":{"ha":1032,"x_min":54,"x_max":978,"o":"m 54 488 q 183 859 54 718 q 514 1000 313 1000 q 849 858 719 1000 q 978 488 978 715 q 850 114 978 256 q 514 -28 722 -28 q 179 114 304 -28 q 54 488 54 256 m 818 497 q 784 708 818 610 q 678 871 750 806 q 510 936 606 936 q 374 898 432 936 q 281 794 315 860 q 231 648 247 728 q 214 475 214 568 q 299 162 214 288 q 529 36 385 36 q 744 167 671 36 q 818 497 818 299 m 297 1168 q 327 1219 297 1193 q 388 1246 357 1246 q 444 1217 421 1246 q 468 1158 468 1188 q 438 1106 468 1132 q 378 1079 408 1079 q 321 1109 344 1079 q 297 1168 297 1139 m 560 1168 q 590 1219 560 1193 q 650 1246 619 1246 q 707 1217 683 1246 q 731 1158 731 1188 q 701 1106 731 1132 q 640 1079 671 1079 q 583 1109 607 1079 q 560 1168 560 1139 z "},"×":{"ha":618,"x_min":76,"x_max":542,"o":"m 153 665 l 310 506 l 474 669 q 525 596 514 625 l 372 443 l 542 275 q 503 242 531 261 q 465 222 476 222 l 308 379 l 142 213 q 110 249 129 221 q 90 286 90 276 l 246 442 l 76 611 q 153 665 119 651 z "},"Ø":{"ha":1046,"x_min":61,"x_max":985,"o":"m 61 488 q 188 856 61 713 q 519 1000 314 999 q 744 946 649 1000 l 814 1063 q 896 1049 875 1067 l 810 901 q 985 488 985 751 q 856 115 985 257 q 519 -28 728 -26 q 304 22 400 -28 l 254 -69 q 169 -56 206 -71 l 238 65 q 61 488 63 210 m 221 475 q 303 167 222 294 l 690 865 q 515 936 619 936 q 349 871 415 936 q 251 703 282 806 q 221 475 221 600 m 825 497 q 744 801 822 665 l 358 103 q 535 36 433 36 q 749 169 674 38 q 825 497 825 300 z "},"Ù":{"ha":1035,"x_min":31,"x_max":1010,"o":"m 892 903 l 892 382 q 870 182 892 258 q 807 60 849 106 q 699 -7 765 14 q 532 -28 632 -28 q 361 -10 432 -28 q 241 51 290 7 q 167 172 192 94 q 142 368 142 249 l 142 903 l 35 931 q 42 979 31 957 q 211 972 167 972 q 401 979 274 972 q 399 931 406 953 q 288 903 326 921 l 288 326 q 567 42 286 40 q 659 54 619 42 q 727 91 699 67 q 770 143 756 115 q 794 199 785 171 q 808 273 803 228 q 815 347 814 318 q 815 424 815 376 l 815 903 l 708 931 q 715 979 704 957 q 857 972 813 972 q 1006 979 904 972 q 1003 931 1010 951 q 892 903 924 919 m 575 1033 l 340 1168 q 415 1274 360 1236 l 607 1074 q 575 1033 594 1051 z "},"Ú":{"ha":1035,"x_min":31,"x_max":1010,"o":"m 892 903 l 892 382 q 870 182 892 258 q 807 60 849 106 q 699 -7 765 14 q 532 -28 632 -28 q 361 -10 432 -28 q 241 51 290 7 q 167 172 192 94 q 142 368 142 249 l 142 903 l 35 931 q 42 979 31 957 q 211 972 167 972 q 401 979 274 972 q 399 931 406 953 q 288 903 326 921 l 288 326 q 567 42 286 40 q 659 54 619 42 q 727 91 699 67 q 770 143 756 115 q 794 199 785 171 q 808 273 803 228 q 815 347 814 318 q 815 424 815 376 l 815 903 l 708 931 q 715 979 704 957 q 857 972 813 972 q 1006 979 904 972 q 1003 931 1010 951 q 892 903 924 919 m 756 1168 l 521 1033 q 489 1074 501 1051 l 681 1274 q 756 1168 736 1236 z "},"Û":{"ha":1035,"x_min":31,"x_max":1010,"o":"m 892 903 l 892 382 q 870 182 892 258 q 807 60 849 106 q 699 -7 765 14 q 532 -28 632 -28 q 361 -10 432 -28 q 241 51 290 7 q 167 172 192 94 q 142 368 142 249 l 142 903 l 35 931 q 42 979 31 957 q 211 972 167 972 q 401 979 274 972 q 399 931 406 953 q 288 903 326 921 l 288 326 q 567 42 286 40 q 659 54 619 42 q 727 91 699 67 q 770 143 756 115 q 794 199 785 171 q 808 273 803 228 q 815 347 814 318 q 815 424 815 376 l 815 903 l 708 931 q 715 979 704 957 q 857 972 813 972 q 1006 979 904 972 q 1003 931 1010 951 q 892 903 924 919 m 715 1046 q 549 1182 660 1081 q 382 1046 478 1113 q 338 1079 354 1057 l 511 1271 q 554 1275 535 1275 q 599 1271 571 1275 l 768 1079 q 715 1046 751 1057 z "},"Ü":{"ha":1035,"x_min":31,"x_max":1010,"o":"m 892 903 l 892 382 q 870 182 892 258 q 807 60 849 106 q 699 -7 765 14 q 532 -28 632 -28 q 361 -10 432 -28 q 241 51 290 7 q 167 172 192 94 q 142 368 142 249 l 142 903 l 35 931 q 42 979 31 957 q 211 972 167 972 q 401 979 274 972 q 399 931 406 953 q 288 903 326 921 l 288 326 q 567 42 286 40 q 659 54 619 42 q 727 91 699 67 q 770 143 756 115 q 794 199 785 171 q 808 273 803 228 q 815 347 814 318 q 815 424 815 376 l 815 903 l 708 931 q 715 979 704 957 q 857 972 813 972 q 1006 979 904 972 q 1003 931 1010 951 q 892 903 924 919 m 338 1167 q 367 1218 338 1192 q 428 1244 397 1244 q 485 1215 461 1244 q 508 1157 508 1186 q 478 1104 508 1131 q 418 1078 449 1078 q 361 1108 385 1078 q 338 1167 338 1138 m 600 1167 q 630 1218 600 1192 q 690 1244 660 1244 q 747 1215 724 1244 q 771 1157 771 1186 q 741 1104 771 1131 q 681 1078 711 1078 q 624 1108 647 1078 q 600 1167 600 1138 z "},"Ý":{"ha":910,"x_min":-21,"x_max":926,"o":"m 535 446 l 535 69 l 656 42 q 649 -7 660 15 q 465 0 524 0 q 275 -7 404 0 q 278 42 269 19 q 389 69 356 51 l 389 418 l 90 903 l -17 931 q -10 979 -21 957 q 172 972 115 972 q 367 979 238 972 q 364 931 371 953 q 251 903 285 921 l 481 508 l 486 508 l 717 903 l 610 931 q 617 979 606 957 q 774 972 714 972 q 922 979 821 972 q 919 931 926 953 q 801 903 833 919 l 535 446 m 710 1169 l 475 1035 q 443 1075 456 1053 l 635 1275 q 710 1169 690 1238 z "},"Þ":{"ha":797,"x_min":46,"x_max":765,"o":"m 311 903 l 311 793 l 382 797 q 661 722 557 797 q 765 515 765 647 q 730 372 765 433 q 636 276 694 311 q 508 224 578 240 q 361 207 439 207 q 311 208 326 207 l 311 69 l 432 42 q 425 -7 436 15 q 242 0 286 0 q 51 -7 181 0 q 54 42 46 18 q 165 69 131 51 l 165 903 l 58 931 q 65 979 54 957 q 235 972 176 972 q 425 979 297 972 q 422 931 429 953 q 311 903 350 918 m 388 740 q 311 731 357 740 l 311 275 q 372 269 339 269 q 540 335 475 269 q 606 507 606 400 q 545 678 606 615 q 388 740 485 740 z "},"ß":{"ha":875,"x_min":31,"x_max":851,"o":"m 271 0 q 32 -7 158 -1 q 31 13 31 0 q 35 42 31 28 q 132 69 104 60 l 132 674 l 42 674 q 44 714 40 696 q 56 743 49 732 l 132 743 q 215 977 132 892 q 451 1063 297 1063 q 656 995 581 1061 q 747 839 732 929 q 729 731 760 774 q 608 658 699 689 q 534 616 553 639 q 517 556 515 593 q 547 480 515 514 q 676 399 579 446 q 817 299 782 347 q 850 174 851 250 q 779 22 849 72 q 600 -28 710 -28 q 483 -17 529 -28 q 383 26 438 -7 q 408 214 381 133 q 478 208 447 219 l 496 60 q 590 36 533 35 q 688 63 650 36 q 725 142 725 89 q 697 225 728 190 q 565 307 667 260 q 438 397 479 346 q 397 531 397 447 q 430 637 396 597 q 546 704 464 676 q 650 850 678 747 q 454 994 613 994 q 309 940 350 994 q 271 778 268 885 l 271 0 z "},"à":{"ha":689,"x_min":42,"x_max":678,"o":"m 181 167 q 210 82 181 111 q 292 53 240 53 q 374 76 331 53 q 440 132 418 100 l 440 319 q 239 285 297 319 q 181 167 181 251 m 576 440 l 576 68 q 674 40 597 57 q 667 -8 678 14 q 550 -18 615 -18 q 471 -10 504 -18 l 451 63 l 446 63 q 239 -24 363 -24 q 96 23 150 -24 q 42 153 42 69 q 440 375 43 382 l 442 497 q 319 660 443 658 q 189 639 246 660 l 171 492 q 110 486 143 482 q 82 667 81 592 q 357 722 197 722 q 526 661 476 724 q 576 440 576 599 m 286 1051 l 397 810 q 347 786 379 792 q 175 996 285 844 q 286 1051 213 1039 z "},"á":{"ha":689,"x_min":42,"x_max":678,"o":"m 181 167 q 210 82 181 111 q 292 53 240 53 q 374 76 331 53 q 440 132 418 100 l 440 319 q 239 285 297 319 q 181 167 181 251 m 576 440 l 576 68 q 674 40 597 57 q 667 -8 678 14 q 550 -18 615 -18 q 471 -10 504 -18 l 451 63 l 446 63 q 239 -24 363 -24 q 96 23 150 -24 q 42 153 42 69 q 440 375 43 382 l 442 497 q 319 660 443 658 q 189 639 246 660 l 171 492 q 110 486 143 482 q 82 667 81 592 q 357 722 197 722 q 526 661 476 724 q 576 440 576 599 m 274 810 l 385 1051 q 496 996 458 1039 q 324 786 388 846 q 274 810 292 792 z "},"â":{"ha":689,"x_min":42,"x_max":678,"o":"m 181 167 q 210 82 181 111 q 292 53 240 53 q 374 76 331 53 q 440 132 418 100 l 440 319 q 239 285 297 319 q 181 167 181 251 m 576 440 l 576 68 q 674 40 597 57 q 667 -8 678 14 q 550 -18 615 -18 q 471 -10 504 -18 l 451 63 l 446 63 q 239 -24 363 -24 q 96 23 150 -24 q 42 153 42 69 q 440 375 43 382 l 442 497 q 319 660 443 658 q 189 639 246 660 l 171 492 q 110 486 143 482 q 82 667 81 592 q 357 722 197 722 q 526 661 476 724 q 576 440 576 599 m 511 817 q 424 776 478 783 q 332 950 381 844 q 222 772 267 828 q 154 804 178 781 q 188 857 163 817 q 228 919 214 897 q 262 978 242 942 q 297 1046 282 1014 q 382 1043 344 1050 q 511 817 425 956 z "},"ã":{"ha":689,"x_min":42,"x_max":678,"o":"m 181 167 q 210 82 181 111 q 292 53 240 53 q 374 76 331 53 q 440 132 418 100 l 440 319 q 239 285 297 319 q 181 167 181 251 m 576 440 l 576 68 q 674 40 597 57 q 667 -8 678 14 q 550 -18 615 -18 q 471 -10 504 -18 l 451 63 l 446 63 q 239 -24 363 -24 q 96 23 150 -24 q 42 153 42 69 q 440 375 43 382 l 442 497 q 319 660 443 658 q 189 639 246 660 l 171 492 q 110 486 143 482 q 82 667 81 592 q 357 722 197 722 q 526 661 476 724 q 576 440 576 599 m 153 828 q 113 861 133 836 q 244 967 169 964 q 328 945 283 969 q 397 917 372 921 q 489 953 458 906 q 529 938 513 953 q 421 819 497 824 q 324 842 374 817 q 244 869 274 868 q 153 828 185 875 z "},"ä":{"ha":689,"x_min":42,"x_max":678,"o":"m 181 167 q 210 82 181 111 q 292 53 240 53 q 374 76 331 53 q 440 132 418 100 l 440 319 q 239 285 297 319 q 181 167 181 251 m 576 440 l 576 68 q 674 40 597 57 q 667 -8 678 14 q 550 -18 615 -18 q 471 -10 504 -18 l 451 63 l 446 63 q 239 -24 363 -24 q 96 23 150 -24 q 42 153 42 69 q 440 375 43 382 l 442 497 q 319 660 443 658 q 189 639 246 660 l 171 492 q 110 486 143 482 q 82 667 81 592 q 357 722 197 722 q 526 661 476 724 q 576 440 576 599 m 132 906 q 162 957 132 931 q 222 983 192 983 q 279 954 256 983 q 303 896 303 925 q 273 843 303 869 q 213 817 243 817 q 156 847 179 817 q 132 906 132 876 m 367 906 q 397 957 367 931 q 457 983 426 983 q 514 954 490 983 q 538 896 538 925 q 508 843 538 869 q 447 817 478 817 q 390 847 414 817 q 367 906 367 876 z "},"å":{"ha":689,"x_min":42,"x_max":678,"o":"m 181 167 q 210 82 181 111 q 292 53 240 53 q 374 76 331 53 q 440 132 418 100 l 440 319 q 239 285 297 319 q 181 167 181 251 m 576 440 l 576 68 q 674 40 597 57 q 667 -8 678 14 q 550 -18 615 -18 q 471 -10 504 -18 l 451 63 l 446 63 q 239 -24 363 -24 q 96 23 150 -24 q 42 153 42 69 q 440 375 43 382 l 442 497 q 319 660 443 658 q 189 639 246 660 l 171 492 q 110 486 143 482 q 82 667 81 592 q 357 722 197 722 q 526 661 476 724 q 576 440 576 599 m 340 978 q 292 960 315 978 q 269 921 269 942 q 288 876 269 899 q 331 854 307 854 q 379 873 357 854 q 401 913 401 892 q 383 956 401 935 q 340 978 365 978 m 189 924 q 240 1010 189 968 q 344 1053 292 1053 q 440 1003 400 1053 q 481 907 481 954 q 431 819 481 861 q 326 776 381 776 q 231 826 274 776 q 189 924 189 876 z "},"æ":{"ha":1092,"x_min":42,"x_max":1044,"o":"m 590 375 l 590 347 q 646 129 590 207 q 799 51 701 51 q 903 63 865 51 q 994 113 940 75 q 1019 79 1017 103 q 794 -28 931 -26 q 504 113 601 -26 q 246 -29 421 -29 q 101 20 160 -29 q 42 150 43 69 q 76 263 42 217 q 170 335 110 310 q 296 368 231 360 q 440 375 361 376 l 442 494 q 319 660 444 658 q 189 639 246 660 l 171 492 q 110 486 143 482 q 82 667 82 581 q 357 722 203 724 q 542 593 504 724 q 788 722 617 721 q 978 641 911 722 q 1044 422 1044 560 q 1042 386 1044 411 l 1022 371 l 590 375 m 181 164 q 210 81 181 108 q 292 53 240 53 q 407 116 371 53 q 440 319 443 179 q 240 284 299 319 q 181 164 181 249 m 778 657 q 597 432 619 657 l 913 449 q 881 607 913 557 q 778 657 849 657 z "},"ç":{"ha":672,"x_min":51,"x_max":631,"o":"m 407 -78 q 569 -196 569 -78 q 519 -297 569 -257 q 381 -337 468 -337 q 268 -319 318 -336 q 289 -279 269 -294 q 372 -296 332 -296 q 446 -274 417 -296 q 475 -226 475 -253 q 442 -167 475 -187 q 350 -146 408 -146 l 347 -21 q 153 76 235 -6 q 51 347 54 176 q 154 620 51 521 q 415 719 257 719 q 631 675 531 719 q 603 486 631 572 q 581 485 594 485 q 542 492 557 485 l 524 639 q 419 658 481 657 q 256 573 313 657 q 200 347 200 489 q 258 127 200 203 q 411 51 315 51 q 603 117 503 51 q 628 81 621 106 q 399 -24 529 -19 l 407 -78 z "},"è":{"ha":701,"x_min":51,"x_max":639,"o":"m 199 375 l 199 347 q 255 131 199 208 q 408 53 311 53 q 508 65 471 53 q 603 115 546 76 q 628 82 625 106 q 404 -24 532 -22 q 149 76 244 -24 q 51 347 53 176 q 152 620 53 522 q 397 718 251 718 q 577 638 515 718 q 639 422 639 558 q 638 386 639 399 l 618 371 l 199 375 m 396 658 q 276 599 331 658 q 204 432 221 540 l 507 449 q 483 609 507 560 q 396 658 458 658 m 332 1049 l 443 807 q 393 783 425 789 q 221 993 331 842 q 332 1049 258 1036 z "},"é":{"ha":701,"x_min":51,"x_max":639,"o":"m 199 375 l 199 347 q 255 131 199 208 q 408 53 311 53 q 508 65 471 53 q 603 115 546 76 q 628 82 625 106 q 404 -24 532 -22 q 149 76 244 -24 q 51 347 53 176 q 152 620 53 522 q 397 718 251 718 q 577 638 515 718 q 639 422 639 558 q 638 386 639 399 l 618 371 l 199 375 m 396 658 q 276 599 331 658 q 204 432 221 540 l 507 449 q 483 609 507 560 q 396 658 458 658 m 321 807 l 432 1049 q 543 993 506 1036 q 371 783 435 843 q 321 807 339 789 z "},"ê":{"ha":701,"x_min":51,"x_max":639,"o":"m 199 375 l 199 347 q 255 131 199 208 q 408 53 311 53 q 508 65 471 53 q 603 115 546 76 q 628 82 625 106 q 404 -24 532 -22 q 149 76 244 -24 q 51 347 53 176 q 152 620 53 522 q 397 718 251 718 q 577 638 515 718 q 639 422 639 558 q 638 386 639 399 l 618 371 l 199 375 m 396 658 q 276 599 331 658 q 204 432 221 540 l 507 449 q 483 609 507 560 q 396 658 458 658 m 565 814 q 478 774 532 781 q 386 947 435 842 q 276 769 321 825 q 208 801 232 778 q 242 854 217 814 q 282 917 268 894 q 316 975 296 939 q 351 1043 336 1011 q 436 1040 399 1047 q 565 814 479 953 z "},"ë":{"ha":701,"x_min":51,"x_max":639,"o":"m 199 375 l 199 347 q 255 131 199 208 q 408 53 311 53 q 508 65 471 53 q 603 115 546 76 q 628 82 625 106 q 404 -24 532 -22 q 149 76 244 -24 q 51 347 53 176 q 152 620 53 522 q 397 718 251 718 q 577 638 515 718 q 639 422 639 558 q 638 386 639 399 l 618 371 l 199 375 m 396 658 q 276 599 331 658 q 204 432 221 540 l 507 449 q 483 609 507 560 q 396 658 458 658 m 179 903 q 209 954 179 928 q 269 981 239 981 q 326 951 303 981 q 350 893 350 922 q 320 840 350 867 q 260 814 290 814 q 203 844 226 814 q 179 903 179 874 m 414 903 q 444 954 414 928 q 504 981 474 981 q 561 951 538 981 q 585 893 585 922 q 555 840 585 867 q 494 814 525 814 q 438 844 461 814 q 414 903 414 874 z "},"ì":{"ha":403,"x_min":28,"x_max":383,"o":"m 286 693 l 286 69 l 379 42 q 372 -7 383 15 q 217 0 275 0 q 47 -7 161 0 q 50 42 43 19 q 147 69 126 58 l 147 611 l 32 622 q 39 671 28 650 q 233 708 154 688 q 286 693 257 707 m 150 1051 l 261 810 q 211 786 243 792 q 39 996 149 844 q 150 1051 76 1039 z "},"í":{"ha":403,"x_min":28,"x_max":388,"o":"m 286 693 l 286 69 l 379 42 q 372 -7 383 15 q 217 0 275 0 q 47 -7 161 0 q 50 42 43 19 q 147 69 126 58 l 147 611 l 32 622 q 39 671 28 650 q 233 708 154 688 q 286 693 257 707 m 165 810 l 276 1051 q 388 996 350 1039 q 215 786 279 846 q 165 810 183 792 z "},"î":{"ha":403,"x_min":17,"x_max":382,"o":"m 285 693 l 285 69 l 378 42 q 371 -7 382 15 q 215 0 274 0 q 46 -7 160 0 q 49 42 42 19 q 146 69 125 58 l 146 611 l 31 622 q 38 671 26 650 q 232 708 153 688 q 285 693 256 707 m 374 817 q 286 776 340 783 q 194 950 243 844 q 85 772 129 828 q 17 804 40 781 q 51 857 25 817 q 90 919 76 897 q 124 978 104 942 q 160 1046 144 1014 q 244 1043 207 1050 q 374 817 288 956 z "},"ï":{"ha":403,"x_min":-6,"x_max":400,"o":"m 285 693 l 285 69 l 378 42 q 371 -7 382 15 q 215 0 274 0 q 46 -7 160 0 q 49 42 42 19 q 146 69 125 58 l 146 611 l 31 622 q 38 671 26 650 q 232 708 153 688 q 285 693 256 707 m -6 906 q 24 957 -6 931 q 85 983 54 983 q 142 954 118 983 q 165 896 165 925 q 135 843 165 869 q 75 817 106 817 q 18 847 42 817 q -6 906 -6 876 m 229 906 q 259 957 229 931 q 319 983 289 983 q 376 954 353 983 q 400 896 400 925 q 370 843 400 869 q 310 817 340 817 q 253 847 276 817 q 229 906 229 876 z "},"ð":{"ha":804,"x_min":51,"x_max":735,"o":"m 636 960 l 526 896 q 687 654 639 792 q 735 333 735 517 q 709 188 735 254 q 638 74 683 122 q 529 -1 592 26 q 393 -28 467 -28 q 257 -1 319 -28 q 149 74 194 26 q 77 188 103 122 q 51 333 51 254 q 78 478 51 411 q 150 593 104 544 q 258 669 196 642 q 393 696 321 696 q 583 638 497 696 q 451 854 549 772 l 315 775 q 308 788 313 779 q 300 806 304 796 q 292 825 296 815 q 289 839 289 835 l 289 842 l 388 899 q 239 964 317 939 q 235 994 235 981 q 242 1028 235 1011 q 465 943 367 1007 l 611 1026 q 636 960 636 982 m 586 315 q 574 445 586 386 q 538 546 563 504 q 477 611 514 588 q 390 635 440 635 q 304 613 340 635 q 245 550 268 590 q 211 453 222 510 q 200 325 200 396 q 212 210 200 263 q 248 117 224 157 q 309 56 272 78 q 396 33 346 33 q 483 55 447 33 q 542 115 519 76 q 576 204 565 153 q 586 315 586 256 z "},"ñ":{"ha":838,"x_min":21,"x_max":828,"o":"m 272 696 l 268 601 l 269 600 q 531 717 386 714 q 674 665 622 717 q 725 515 725 613 l 726 69 l 824 42 q 817 -7 828 15 q 657 0 706 0 q 493 -7 607 0 q 496 42 489 19 q 588 69 539 50 l 588 453 q 559 582 588 544 q 465 619 531 619 q 279 536 353 619 l 279 69 l 372 42 q 365 -7 376 15 q 210 0 254 0 q 40 -7 168 0 q 43 42 36 19 q 140 69 110 58 l 140 611 l 25 622 q 32 671 21 650 q 225 708 139 689 q 272 696 249 707 m 263 828 q 222 861 243 836 q 354 967 279 964 q 438 945 393 969 q 507 917 482 921 q 599 953 568 906 q 639 938 622 953 q 531 819 607 824 q 433 842 483 817 q 354 869 383 868 q 263 828 294 875 z "},"ò":{"ha":808,"x_min":54,"x_max":754,"o":"m 54 347 q 156 622 54 521 q 404 722 257 724 q 660 615 565 722 q 754 347 754 508 q 654 71 754 171 q 404 -28 554 -29 q 147 79 239 -28 q 54 347 54 186 m 604 328 q 557 561 607 460 q 401 663 507 663 q 251 573 299 663 q 204 338 203 483 q 216 218 204 274 q 253 121 228 163 q 316 56 278 79 q 407 32 354 32 q 549 101 493 31 q 604 328 604 172 m 343 1053 l 454 811 q 404 788 436 793 q 232 997 342 846 q 343 1053 269 1040 z "},"ó":{"ha":808,"x_min":54,"x_max":754,"o":"m 54 347 q 156 622 54 521 q 404 722 257 724 q 660 615 565 722 q 754 347 754 508 q 654 71 754 171 q 404 -28 554 -29 q 147 79 239 -28 q 54 347 54 186 m 604 328 q 557 561 607 460 q 401 663 507 663 q 251 573 299 663 q 204 338 203 483 q 216 218 204 274 q 253 121 228 163 q 316 56 278 79 q 407 32 354 32 q 549 101 493 31 q 604 328 604 172 m 358 811 l 469 1053 q 581 997 543 1040 q 408 788 472 847 q 358 811 376 793 z "},"ô":{"ha":808,"x_min":54,"x_max":754,"o":"m 54 347 q 156 622 54 521 q 404 722 257 724 q 660 615 565 722 q 754 347 754 508 q 654 71 754 171 q 404 -28 554 -29 q 147 79 239 -28 q 54 347 54 186 m 604 328 q 557 561 607 460 q 401 663 507 663 q 251 573 299 663 q 204 338 203 483 q 216 218 204 274 q 253 121 228 163 q 316 56 278 79 q 407 32 354 32 q 549 101 493 31 q 604 328 604 172 m 582 818 q 494 778 549 785 q 403 951 451 846 q 293 774 338 829 q 225 806 249 782 q 259 858 233 818 q 299 921 285 899 q 333 979 313 943 q 368 1047 353 1015 q 453 1044 415 1051 q 582 818 496 957 z "},"õ":{"ha":808,"x_min":54,"x_max":754,"o":"m 54 347 q 156 622 54 521 q 404 722 257 724 q 660 615 565 722 q 754 347 754 508 q 654 71 754 171 q 404 -28 554 -29 q 147 79 239 -28 q 54 347 54 186 m 604 328 q 557 561 607 460 q 401 663 507 663 q 251 573 299 663 q 204 338 203 483 q 216 218 204 274 q 253 121 228 163 q 316 56 278 79 q 407 32 354 32 q 549 101 493 31 q 604 328 604 172 m 238 829 q 197 863 218 838 q 329 968 254 965 q 413 947 368 971 q 482 918 457 922 q 574 954 543 907 q 614 939 597 954 q 506 821 582 825 q 408 844 458 818 q 329 871 358 869 q 238 829 269 876 z "},"ö":{"ha":808,"x_min":54,"x_max":754,"o":"m 54 347 q 156 622 54 521 q 404 722 257 724 q 660 615 565 722 q 754 347 754 508 q 654 71 754 171 q 404 -28 554 -29 q 147 79 239 -28 q 54 347 54 186 m 604 328 q 557 561 607 460 q 401 663 507 663 q 251 573 299 663 q 204 338 203 483 q 216 218 204 274 q 253 121 228 163 q 316 56 278 79 q 407 32 354 32 q 549 101 493 31 q 604 328 604 172 m 203 907 q 233 958 203 932 q 293 985 263 985 q 350 956 326 985 q 374 897 374 926 q 344 844 374 871 q 283 818 314 818 q 226 848 250 818 q 203 907 203 878 m 438 907 q 467 958 438 932 q 528 985 497 985 q 585 956 561 985 q 608 897 608 926 q 578 844 608 871 q 518 818 549 818 q 461 848 485 818 q 438 907 438 878 z "},"÷":{"ha":700,"x_min":69,"x_max":628,"o":"m 613 397 l 71 397 q 74 447 69 415 q 86 485 79 478 l 628 485 q 613 397 625 421 m 265 217 q 295 267 265 242 q 356 293 325 293 q 413 264 390 292 q 435 204 435 236 q 405 153 433 178 q 343 129 376 129 q 288 159 310 131 q 265 217 265 188 m 265 660 q 295 710 265 685 q 356 736 325 736 q 413 707 390 735 q 435 647 435 679 q 405 597 433 621 q 343 572 376 572 q 288 602 310 574 q 265 660 265 631 z "},"ø":{"ha":808,"x_min":50,"x_max":750,"o":"m 106 -56 l 172 50 q 50 347 51 154 q 148 619 51 515 q 400 722 244 722 q 578 678 497 722 l 651 794 q 729 782 697 803 l 636 635 q 750 347 750 524 q 653 74 749 175 q 400 -28 557 -28 q 235 8 307 -28 l 185 -71 q 106 -56 136 -74 m 200 338 q 238 142 200 218 l 522 607 q 397 663 471 663 q 247 574 296 663 q 200 338 199 485 m 600 328 q 565 536 600 453 l 285 76 q 403 32 332 32 q 553 115 506 33 q 600 328 600 196 z "},"ù":{"ha":819,"x_min":13,"x_max":801,"o":"m 700 67 q 797 39 719 53 q 790 -10 801 14 q 676 -19 739 -19 q 599 -11 632 -19 l 575 92 l 568 92 q 438 3 499 29 q 306 -22 378 -22 q 118 186 118 -22 l 118 611 l 17 622 q 24 671 13 650 q 204 708 108 683 q 257 693 228 707 l 257 207 q 289 101 257 129 q 388 75 321 74 q 479 101 431 75 q 561 164 528 126 l 561 611 l 460 622 q 467 671 456 650 q 647 708 551 683 q 700 693 671 707 l 700 67 m 313 1050 l 424 808 q 374 785 406 790 q 201 994 311 843 q 313 1050 239 1038 z "},"ú":{"ha":819,"x_min":13,"x_max":801,"o":"m 700 67 q 797 39 719 53 q 790 -10 801 14 q 676 -19 739 -19 q 599 -11 632 -19 l 575 92 l 568 92 q 438 3 499 29 q 306 -22 378 -22 q 118 186 118 -22 l 118 611 l 17 622 q 24 671 13 650 q 204 708 108 683 q 257 693 228 707 l 257 207 q 289 101 257 129 q 388 75 321 74 q 479 101 431 75 q 561 164 528 126 l 561 611 l 460 622 q 467 671 456 650 q 647 708 551 683 q 700 693 671 707 l 700 67 m 356 808 l 467 1050 q 578 994 540 1038 q 406 785 469 844 q 356 808 374 790 z "},"û":{"ha":819,"x_min":13,"x_max":801,"o":"m 700 67 q 797 39 719 53 q 790 -10 801 14 q 676 -19 739 -19 q 599 -11 632 -19 l 575 92 l 568 92 q 438 3 499 29 q 306 -22 378 -22 q 118 186 118 -22 l 118 611 l 17 622 q 24 671 13 650 q 204 708 108 683 q 257 693 228 707 l 257 207 q 289 101 257 129 q 388 75 321 74 q 479 101 431 75 q 561 164 528 126 l 561 611 l 460 622 q 467 671 456 650 q 647 708 551 683 q 700 693 671 707 l 700 67 m 579 815 q 492 775 546 782 q 400 949 449 843 q 290 771 335 826 q 222 803 246 779 q 256 856 231 815 q 296 918 282 896 q 330 976 310 940 q 365 1044 350 1013 q 450 1042 413 1049 q 579 815 493 954 z "},"ü":{"ha":819,"x_min":13,"x_max":801,"o":"m 700 67 q 797 39 719 53 q 790 -10 801 14 q 676 -19 739 -19 q 599 -11 632 -19 l 575 92 l 568 92 q 438 3 499 29 q 306 -22 378 -22 q 118 186 118 -22 l 118 611 l 17 622 q 24 671 13 650 q 204 708 108 683 q 257 693 228 707 l 257 207 q 289 101 257 129 q 388 75 321 74 q 479 101 431 75 q 561 164 528 126 l 561 611 l 460 622 q 467 671 456 650 q 647 708 551 683 q 700 693 671 707 l 700 67 m 186 904 q 216 956 186 929 q 276 982 246 982 q 333 953 310 982 q 357 894 357 924 q 327 842 357 868 q 267 815 297 815 q 210 845 233 815 q 186 904 186 875 m 421 904 q 451 956 421 929 q 511 982 481 982 q 568 953 544 982 q 592 894 592 924 q 562 842 592 868 q 501 815 532 815 q 444 845 468 815 q 421 904 421 875 z "},"ý":{"ha":796,"x_min":6,"x_max":803,"o":"m 156 -374 q 76 -196 86 -271 q 129 -176 103 -178 l 218 -281 q 369 -6 296 -204 l 117 625 l 10 653 q 17 701 6 679 q 181 694 142 694 q 353 701 224 694 q 350 653 357 675 q 254 625 271 636 l 369 346 q 440 131 428 206 l 444 131 q 454 172 446 136 q 472 240 463 207 q 499 315 482 274 l 617 625 l 521 653 q 528 701 517 679 q 664 694 621 694 q 799 701 713 694 q 796 653 803 675 q 700 625 715 636 l 428 -65 q 299 -292 371 -210 q 156 -374 226 -375 m 403 808 l 514 1050 q 625 994 588 1038 q 453 785 517 844 q 403 808 421 790 z "},"þ":{"ha":789,"x_min":-19,"x_max":735,"o":"m 232 1035 l 231 642 l 238 635 q 446 722 336 722 q 656 619 578 721 q 735 365 733 517 q 641 74 735 175 q 379 -26 547 -26 q 238 4 311 -24 l 238 -278 l 358 -306 q 351 -354 363 -332 q 168 -347 226 -347 q -1 -354 113 -347 q 1 -306 -6 -328 q 99 -278 68 -292 l 99 949 l -15 960 q -8 1008 -19 988 q 183 1046 49 1015 q 232 1035 206 1044 m 238 561 l 238 82 q 376 38 303 38 q 533 121 479 38 q 588 357 588 204 q 539 568 588 497 q 404 639 490 639 q 307 615 356 639 q 238 561 258 590 z "},"ÿ":{"ha":796,"x_min":6,"x_max":803,"o":"m 156 -374 q 76 -196 86 -271 q 129 -176 103 -178 l 218 -281 q 369 -6 296 -204 l 117 625 l 10 653 q 17 701 6 679 q 181 694 142 694 q 353 701 224 694 q 350 653 357 675 q 254 625 271 636 l 369 346 q 440 131 428 206 l 444 131 q 454 172 446 136 q 472 240 463 207 q 499 315 482 274 l 617 625 l 521 653 q 528 701 517 679 q 664 694 621 694 q 799 701 713 694 q 796 653 803 675 q 700 625 715 636 l 428 -65 q 299 -292 371 -210 q 156 -374 226 -375 m 235 904 q 265 956 235 929 q 325 982 294 982 q 382 953 358 982 q 406 894 406 924 q 376 842 406 868 q 315 815 346 815 q 258 845 282 815 q 235 904 235 875 m 469 904 q 499 956 469 929 q 560 982 529 982 q 617 953 593 982 q 640 894 640 924 q 610 842 640 868 q 550 815 581 815 q 493 845 517 815 q 469 904 469 875 z "},"ı":{"ha":403,"x_min":26,"x_max":382,"o":"m 285 693 l 285 69 l 378 42 q 371 -7 382 15 q 215 0 274 0 q 46 -7 160 0 q 49 42 42 19 q 146 69 125 58 l 146 611 l 31 622 q 38 671 26 650 q 232 708 153 688 q 285 693 256 707 z "},"Œ":{"ha":1503,"x_min":61,"x_max":1440,"o":"m 61 488 q 190 860 64 721 q 521 1000 315 999 q 811 888 696 1000 l 811 972 l 1401 972 q 1386 729 1404 831 q 1336 725 1365 721 l 1300 910 l 943 910 l 943 535 l 1201 535 l 1228 657 q 1283 650 1260 667 q 1278 501 1278 596 q 1283 338 1278 397 q 1228 335 1258 328 l 1201 458 l 943 458 l 943 63 l 1346 63 l 1375 247 q 1424 243 1404 253 q 1440 43 1440 163 l 1440 0 l 811 0 l 811 82 q 521 -28 699 -28 q 184 116 306 -25 q 61 488 63 257 m 536 36 q 687 96 625 36 q 778 255 749 156 q 811 478 808 354 l 811 514 q 727 811 807 688 q 517 936 647 935 q 381 897 439 936 q 288 794 322 858 q 238 649 254 729 q 221 475 221 568 q 303 166 221 293 q 536 36 385 39 z "},"œ":{"ha":1228,"x_min":50,"x_max":1179,"o":"m 732 375 l 732 347 q 785 127 732 206 q 935 49 838 49 q 1040 61 1001 49 q 1135 111 1079 74 q 1160 78 1157 101 q 931 -28 1074 -25 q 664 82 761 -28 q 404 -28 563 -25 q 151 77 251 -28 q 50 347 51 182 q 152 615 51 510 q 404 722 253 721 q 618 650 526 722 q 663 589 640 633 q 767 688 696 654 q 924 722 838 722 q 1114 640 1049 721 q 1179 422 1179 558 q 1178 386 1179 399 l 1158 371 l 732 375 m 604 328 q 554 566 604 475 q 401 658 504 657 q 204 338 206 657 q 255 122 204 206 q 407 36 306 38 q 558 118 511 38 q 604 328 604 199 m 924 667 q 797 606 844 667 q 739 432 750 546 l 1049 449 q 1021 614 1049 561 q 924 667 993 667 z "},"ˆ":{"ha":392,"x_min":-3,"x_max":354,"o":"m 354 817 q 267 776 321 783 q 175 950 224 844 q 65 772 110 828 q -3 804 21 781 q 31 857 6 817 q 71 919 57 897 q 105 978 85 942 q 140 1046 125 1014 q 225 1043 188 1050 q 354 817 268 956 z "},"ˇ":{"ha":326,"x_min":-3,"x_max":344,"o":"m -3 1011 q 85 1051 31 1043 q 179 869 124 990 q 210 931 192 893 q 244 998 228 968 q 278 1050 260 1028 q 344 1017 314 1047 q 225 776 282 915 q 140 775 167 767 q 98 851 122 811 q 42 940 74 890 q -3 1011 10 990 z "},"˚":{"ha":354,"x_min":35,"x_max":326,"o":"m 186 978 q 138 960 161 978 q 115 921 115 942 q 134 876 115 899 q 176 854 153 854 q 225 873 203 854 q 247 913 247 892 q 229 956 247 935 q 186 978 211 978 m 35 924 q 86 1010 35 968 q 190 1053 138 1053 q 286 1003 246 1053 q 326 907 326 954 q 276 819 326 861 q 172 776 226 776 q 77 826 119 776 q 35 924 35 876 z "},"˜":{"ha":478,"x_min":31,"x_max":447,"o":"m 71 828 q 31 861 51 836 q 163 967 88 964 q 246 945 201 969 q 315 917 290 921 q 407 953 376 906 q 447 938 431 953 q 339 819 415 824 q 242 842 292 817 q 163 869 192 868 q 71 828 103 875 z "},"–":{"ha":913,"x_min":85,"x_max":828,"o":"m 813 396 l 86 396 q 90 444 85 413 q 101 485 94 476 l 828 485 q 813 396 825 419 z "},"—":{"ha":1247,"x_min":85,"x_max":1160,"o":"m 1144 396 l 86 396 q 90 445 85 414 q 101 485 94 476 l 1160 485 q 1144 396 1157 419 z "},"‘":{"ha":299,"x_min":54,"x_max":254,"o":"m 169 692 q 82 738 110 693 q 54 843 54 782 q 85 966 54 911 q 167 1044 117 1021 q 201 1008 194 1044 q 143 953 158 979 q 128 892 128 928 q 163 854 126 853 l 183 854 q 235 833 215 854 q 254 776 254 813 q 230 714 254 736 q 169 692 206 692 z "},"’":{"ha":285,"x_min":35,"x_max":235,"o":"m 119 1044 q 207 999 179 1044 q 235 893 235 954 q 203 770 235 825 q 122 692 172 715 q 88 728 94 692 q 146 783 131 757 q 161 844 161 808 q 126 882 163 883 l 106 882 q 54 903 74 882 q 35 960 35 924 q 59 1022 35 1000 q 119 1044 83 1044 z "},"‚":{"ha":304,"x_min":35,"x_max":235,"o":"m 119 164 q 207 119 179 164 q 235 13 235 74 q 203 -110 235 -56 q 122 -189 172 -165 q 88 -153 94 -189 q 146 -98 131 -124 q 161 -36 161 -72 q 126 1 163 3 l 106 1 q 54 22 74 1 q 35 79 35 43 q 59 142 35 119 q 119 164 83 164 z "},"“":{"ha":556,"x_min":58,"x_max":513,"o":"m 174 692 q 86 738 114 693 q 58 843 58 782 q 90 966 58 911 q 171 1044 121 1021 q 206 1008 199 1044 q 147 953 163 979 q 132 892 132 928 q 167 854 131 853 l 188 854 q 239 833 219 854 q 258 776 258 813 q 234 714 258 736 q 174 692 210 692 m 428 692 q 340 738 368 693 q 313 843 313 782 q 344 966 313 911 q 425 1044 375 1021 q 460 1008 453 1044 q 401 953 417 979 q 386 892 386 928 q 421 854 385 853 l 442 854 q 493 833 474 854 q 513 776 513 813 q 488 714 513 736 q 428 692 464 692 z "},"”":{"ha":542,"x_min":35,"x_max":500,"o":"m 119 1044 q 207 999 179 1044 q 235 893 235 954 q 203 770 235 825 q 122 692 172 715 q 88 728 94 692 q 146 783 131 757 q 161 844 161 808 q 126 882 163 883 l 106 882 q 54 903 74 882 q 35 960 35 924 q 59 1022 35 1000 q 119 1044 83 1044 m 385 1044 q 472 999 444 1044 q 500 893 500 954 q 469 770 500 825 q 388 692 438 715 q 353 728 360 692 q 411 783 396 757 q 426 844 426 808 q 392 882 428 883 l 371 882 q 319 903 339 882 q 300 960 300 924 q 324 1022 300 1000 q 385 1044 349 1044 z "},"„":{"ha":569,"x_min":35,"x_max":500,"o":"m 119 164 q 207 119 179 164 q 235 13 235 74 q 203 -110 235 -56 q 122 -189 172 -165 q 88 -153 94 -189 q 146 -98 131 -124 q 161 -36 161 -72 q 126 1 163 3 l 106 1 q 54 22 74 1 q 35 79 35 43 q 59 142 35 119 q 119 164 83 164 m 385 164 q 472 119 444 164 q 500 13 500 74 q 469 -110 500 -56 q 388 -189 438 -165 q 353 -153 360 -189 q 411 -98 396 -124 q 426 -36 426 -72 q 392 1 428 3 l 371 1 q 319 22 339 1 q 300 79 300 43 q 324 142 300 119 q 385 164 349 164 z "},"•":{"ha":561,"x_min":68,"x_max":493,"o":"m 68 531 q 143 658 68 596 q 296 721 218 721 q 435 649 378 721 q 493 506 493 578 q 419 378 493 440 q 265 317 346 317 q 128 388 188 317 q 68 531 68 460 z "},"‹":{"ha":506,"x_min":50,"x_max":453,"o":"m 394 97 l 58 375 q 58 431 50 406 l 394 708 q 453 671 429 707 l 190 406 l 190 400 l 453 135 q 394 97 429 99 z "},"›":{"ha":506,"x_min":54,"x_max":457,"o":"m 113 97 q 54 135 78 99 l 317 400 l 317 406 l 54 671 q 113 708 78 707 l 449 431 q 449 375 457 406 l 113 97 l 113 97 z "},"⁄":{"ha":464,"x_min":-17,"x_max":479,"o":"m 479 981 l 76 0 q -17 -10 29 -17 l 386 972 q 479 981 435 989 z "},"⁴":{"ha":540,"x_min":26,"x_max":482,"o":"m 376 506 l 478 478 q 471 429 482 451 q 321 436 360 436 q 167 429 281 436 q 169 478 163 456 l 265 506 l 265 582 l 35 582 l 26 607 l 285 1013 q 376 993 335 1013 l 376 650 l 469 650 q 457 582 478 617 l 376 582 l 376 506 m 126 650 l 265 650 l 265 872 l 263 875 l 215 788 l 126 650 z "},"€":{"ha":1033,"x_min":74,"x_max":958,"o":"m 89 592 l 188 592 q 255 775 206 696 q 373 903 304 854 q 517 976 442 953 q 671 1000 593 1000 q 958 938 819 1000 q 889 704 936 801 q 869 703 883 703 q 822 711 842 703 l 840 890 q 683 926 767 926 q 469 834 567 926 q 351 592 371 742 l 665 592 q 651 522 664 546 l 343 522 l 343 486 q 344 424 343 443 l 636 424 q 622 354 635 378 l 353 354 q 458 130 375 214 q 657 46 540 46 q 926 151 803 44 q 958 106 956 136 q 642 -28 824 -26 q 451 14 546 -28 q 285 142 356 56 q 190 354 215 228 l 75 354 q 77 392 74 375 q 89 424 81 410 l 181 424 q 179 486 179 443 q 181 522 179 510 l 75 522 q 77 560 74 542 q 89 592 81 578 z "},"−":{"ha":751,"x_min":94,"x_max":653,"o":"m 638 396 l 96 396 q 99 445 94 414 q 111 485 104 476 l 653 485 q 638 396 650 419 z "}}}
